M48
; DRILL file {KiCad 9.0.1} date 2025-07-04T11:11:24+0200
; FORMAT={-:-/ absolute / metric / decimal}
; #@! TF.CreationDate,2025-07-04T11:11:24+02:00
; #@! TF.GenerationSoftware,Kicad,Pcbnew,9.0.1
; #@! TF.FileFunction,Plated,1,2,PTH
FMAT,2
METRIC
; #@! TA.AperFunction,Plated,PTH,ViaDrill
T1C0.300
; #@! TA.AperFunction,Plated,PTH,ComponentDrill
T2C0.800
; #@! TA.AperFunction,Plated,PTH,ComponentDrill
T3C0.900
; #@! TA.AperFunction,Plated,PTH,ComponentDrill
T4C1.000
; #@! TA.AperFunction,Plated,PTH,ComponentDrill
T5C1.040
; #@! TA.AperFunction,Plated,PTH,ComponentDrill
T6C1.200
; #@! TA.AperFunction,Plated,PTH,ComponentDrill
T7C1.300
; #@! TA.AperFunction,Plated,PTH,ComponentDrill
T8C1.700
; #@! TA.AperFunction,Plated,PTH,ComponentDrill
T9C1.800
%
G90
G05
T1
X94.578Y-88.86
X104.971Y-74.975
X112.455Y-106.428
X113.232Y-100.572
X127.353Y-129.852
X161.077Y-90.708
X163.146Y-113.316
X172.114Y-92.081
X207.566Y-103.567
X216.738Y-71.292
T2
X86.23Y-69.12
X88.58Y-116.84
X93.85Y-69.12
X96.2Y-116.84
X105.75Y-73.92
X105.75Y-81.54
X107.4Y-131.79
X115.02Y-131.79
X168.25Y-125.31
X168.25Y-132.93
X175.82Y-88.62
X176.07Y-109.62
X176.07Y-115.12
X183.44Y-88.62
X183.69Y-109.62
X183.69Y-115.12
X194.32Y-114.62
X194.35Y-88.62
X194.35Y-109.62
X201.94Y-114.62
X201.97Y-88.62
X201.97Y-109.62
X212.38Y-88.12
X212.38Y-109.62
X212.38Y-114.62
X220.0Y-88.12
X220.0Y-109.62
X220.0Y-114.62
X226.14Y-88.22
X226.2Y-69.62
X233.76Y-88.22
X233.82Y-69.62
T3
X209.75Y-125.62
X212.29Y-125.62
T4
X115.2Y-82.94
X117.7Y-82.94
X120.2Y-82.94
T5
X134.7Y-91.53
X134.7Y-94.07
X134.7Y-96.61
X134.7Y-99.15
X134.7Y-101.69
X134.7Y-104.23
X134.7Y-106.77
X134.7Y-109.31
X134.7Y-111.85
X134.7Y-114.39
X134.7Y-116.93
X134.7Y-119.47
X134.7Y-122.01
X134.7Y-124.55
X134.7Y-127.09
X160.1Y-91.53
X160.1Y-94.07
X160.1Y-96.61
X160.1Y-99.15
X160.1Y-101.69
X160.1Y-104.23
X160.1Y-106.77
X160.1Y-109.31
X160.1Y-111.85
X160.1Y-114.39
X160.1Y-116.93
X160.1Y-119.47
X160.1Y-122.01
X160.1Y-124.55
X160.1Y-127.09
T6
X109.2Y-89.69
X109.2Y-122.69
X112.7Y-122.69
X122.3Y-89.69
X122.3Y-122.69
X125.8Y-122.69
T7
X87.7Y-126.79
X87.7Y-131.79
X87.8Y-103.795
X87.8Y-108.795
X100.2Y-126.79
X100.2Y-131.79
X100.3Y-103.795
X100.3Y-108.795
X173.69Y-75.62
X173.69Y-80.62
X173.69Y-96.62
X173.69Y-101.62
X173.69Y-123.12
X173.69Y-128.12
X186.19Y-75.62
X186.19Y-80.62
X186.19Y-96.62
X186.19Y-101.62
X186.19Y-123.12
X186.19Y-128.12
X191.94Y-75.62
X191.94Y-80.62
X191.94Y-96.62
X191.94Y-101.62
X191.94Y-123.12
X191.94Y-128.12
X204.44Y-75.62
X204.44Y-80.62
X204.44Y-96.62
X204.44Y-101.62
X204.44Y-123.12
X204.44Y-128.12
X210.0Y-75.62
X210.0Y-80.62
X210.0Y-96.62
X210.0Y-101.62
X219.75Y-123.12
X219.75Y-128.12
X222.5Y-75.62
X222.5Y-80.62
X222.5Y-96.62
X222.5Y-101.62
X232.25Y-123.12
X232.25Y-128.12
T8
X106.75Y-94.79
X106.75Y-117.59
X115.15Y-93.59
X115.15Y-118.79
X119.85Y-94.79
X119.85Y-117.59
X128.25Y-93.59
X128.25Y-118.79
T9
X113.3Y-76.09G85X113.3Y-75.79
G05
X122.1Y-76.09G85X122.1Y-75.79
G05
M30
