G04 #@! TF.GenerationSoftware,KiCad,Pcbnew,9.0.1*
G04 #@! TF.CreationDate,2025-07-04T11:18:44+02:00*
G04 #@! TF.ProjectId,SecondTry,5365636f-6e64-4547-9279-2e6b69636164,rev?*
G04 #@! TF.SameCoordinates,Original*
G04 #@! TF.FileFunction,Soldermask,Top*
G04 #@! TF.FilePolarity,Negative*
%FSLAX46Y46*%
G04 Gerber Fmt 4.6, Leading zero omitted, Abs format (unit mm)*
G04 Created by KiCad (PCBNEW 9.0.1) date 2025-07-04 11:18:44*
%MOMM*%
%LPD*%
G01*
G04 APERTURE LIST*
G04 APERTURE END LIST*
G36*
X123456790Y-134500393D02*
G01*
X123620952Y-134553733D01*
X123774748Y-134632096D01*
X123914393Y-134733553D01*
X124036447Y-134855607D01*
X124137904Y-134995252D01*
X124216267Y-135149048D01*
X124269607Y-135313210D01*
X124296609Y-135483695D01*
X124296609Y-135656305D01*
X124269607Y-135826790D01*
X124216267Y-135990952D01*
X124137904Y-136144748D01*
X124036447Y-136284393D01*
X123914393Y-136406447D01*
X123774748Y-136507904D01*
X123620952Y-136586267D01*
X123456790Y-136639607D01*
X123286305Y-136666609D01*
X123113695Y-136666609D01*
X122943210Y-136639607D01*
X122779048Y-136586267D01*
X122625252Y-136507904D01*
X122485607Y-136406447D01*
X122363553Y-136284393D01*
X122262096Y-136144748D01*
X122183733Y-135990952D01*
X122130393Y-135826790D01*
X122103391Y-135656305D01*
X122103391Y-135483695D01*
X122130393Y-135313210D01*
X122183733Y-135149048D01*
X122262096Y-134995252D01*
X122363553Y-134855607D01*
X122485607Y-134733553D01*
X122625252Y-134632096D01*
X122779048Y-134553733D01*
X122943210Y-134500393D01*
X123113695Y-134473391D01*
X123286305Y-134473391D01*
X123456790Y-134500393D01*
G37*
G36*
X212106790Y-134230393D02*
G01*
X212270952Y-134283733D01*
X212424748Y-134362096D01*
X212564393Y-134463553D01*
X212686447Y-134585607D01*
X212787904Y-134725252D01*
X212866267Y-134879048D01*
X212919607Y-135043210D01*
X212946609Y-135213695D01*
X212946609Y-135386305D01*
X212919607Y-135556790D01*
X212866267Y-135720952D01*
X212787904Y-135874748D01*
X212686447Y-136014393D01*
X212564393Y-136136447D01*
X212424748Y-136237904D01*
X212270952Y-136316267D01*
X212106790Y-136369607D01*
X211936305Y-136396609D01*
X211763695Y-136396609D01*
X211593210Y-136369607D01*
X211429048Y-136316267D01*
X211275252Y-136237904D01*
X211135607Y-136136447D01*
X211013553Y-136014393D01*
X210912096Y-135874748D01*
X210833733Y-135720952D01*
X210780393Y-135556790D01*
X210753391Y-135386305D01*
X210753391Y-135213695D01*
X210780393Y-135043210D01*
X210833733Y-134879048D01*
X210912096Y-134725252D01*
X211013553Y-134585607D01*
X211135607Y-134463553D01*
X211275252Y-134362096D01*
X211429048Y-134283733D01*
X211593210Y-134230393D01*
X211763695Y-134203391D01*
X211936305Y-134203391D01*
X212106790Y-134230393D01*
G37*
G36*
X168482228Y-132164448D02*
G01*
X168627117Y-132224463D01*
X168757515Y-132311592D01*
X168868408Y-132422485D01*
X168955537Y-132552883D01*
X169015552Y-132697772D01*
X169046148Y-132851586D01*
X169046148Y-133008414D01*
X169015552Y-133162228D01*
X168955537Y-133307117D01*
X168868408Y-133437515D01*
X168757515Y-133548408D01*
X168627117Y-133635537D01*
X168482228Y-133695552D01*
X168328414Y-133726148D01*
X168171586Y-133726148D01*
X168017772Y-133695552D01*
X167872883Y-133635537D01*
X167742485Y-133548408D01*
X167631592Y-133437515D01*
X167544463Y-133307117D01*
X167484448Y-133162228D01*
X167453852Y-133008414D01*
X167453852Y-132851586D01*
X167484448Y-132697772D01*
X167544463Y-132552883D01*
X167631592Y-132422485D01*
X167742485Y-132311592D01*
X167872883Y-132224463D01*
X168017772Y-132164448D01*
X168171586Y-132133852D01*
X168328414Y-132133852D01*
X168482228Y-132164448D01*
G37*
G36*
X88443116Y-130844575D02*
G01*
X88625770Y-130880907D01*
X88797827Y-130952175D01*
X88952674Y-131055640D01*
X89084360Y-131187326D01*
X89187825Y-131342173D01*
X89259093Y-131514230D01*
X89295425Y-131696884D01*
X89295425Y-131883116D01*
X89259093Y-132065770D01*
X89187825Y-132237827D01*
X89084360Y-132392674D01*
X88952674Y-132524360D01*
X88797827Y-132627825D01*
X88625770Y-132699093D01*
X88443116Y-132735425D01*
X88350000Y-132740000D01*
X88348522Y-132740000D01*
X87051478Y-132740000D01*
X87050000Y-132740000D01*
X86956884Y-132735425D01*
X86774230Y-132699093D01*
X86602173Y-132627825D01*
X86447326Y-132524360D01*
X86315640Y-132392674D01*
X86212175Y-132237827D01*
X86140907Y-132065770D01*
X86104575Y-131883116D01*
X86104575Y-131696884D01*
X86140907Y-131514230D01*
X86212175Y-131342173D01*
X86315640Y-131187326D01*
X86447326Y-131055640D01*
X86602173Y-130952175D01*
X86774230Y-130880907D01*
X86956884Y-130844575D01*
X87050000Y-130840000D01*
X88350000Y-130840000D01*
X88443116Y-130844575D01*
G37*
G36*
X100943116Y-130844575D02*
G01*
X101125770Y-130880907D01*
X101297827Y-130952175D01*
X101452674Y-131055640D01*
X101584360Y-131187326D01*
X101687825Y-131342173D01*
X101759093Y-131514230D01*
X101795425Y-131696884D01*
X101795425Y-131883116D01*
X101759093Y-132065770D01*
X101687825Y-132237827D01*
X101584360Y-132392674D01*
X101452674Y-132524360D01*
X101297827Y-132627825D01*
X101125770Y-132699093D01*
X100943116Y-132735425D01*
X100850000Y-132740000D01*
X100848522Y-132740000D01*
X99551478Y-132740000D01*
X99550000Y-132740000D01*
X99456884Y-132735425D01*
X99274230Y-132699093D01*
X99102173Y-132627825D01*
X98947326Y-132524360D01*
X98815640Y-132392674D01*
X98712175Y-132237827D01*
X98640907Y-132065770D01*
X98604575Y-131883116D01*
X98604575Y-131696884D01*
X98640907Y-131514230D01*
X98712175Y-131342173D01*
X98815640Y-131187326D01*
X98947326Y-131055640D01*
X99102173Y-130952175D01*
X99274230Y-130880907D01*
X99456884Y-130844575D01*
X99550000Y-130840000D01*
X100850000Y-130840000D01*
X100943116Y-130844575D01*
G37*
G36*
X107632228Y-131024448D02*
G01*
X107777117Y-131084463D01*
X107907515Y-131171592D01*
X108018408Y-131282485D01*
X108105537Y-131412883D01*
X108165552Y-131557772D01*
X108196148Y-131711586D01*
X108196148Y-131868414D01*
X108165552Y-132022228D01*
X108105537Y-132167117D01*
X108018408Y-132297515D01*
X107907515Y-132408408D01*
X107777117Y-132495537D01*
X107632228Y-132555552D01*
X107478414Y-132586148D01*
X107321586Y-132586148D01*
X107167772Y-132555552D01*
X107022883Y-132495537D01*
X106892485Y-132408408D01*
X106781592Y-132297515D01*
X106694463Y-132167117D01*
X106634448Y-132022228D01*
X106603852Y-131868414D01*
X106603852Y-131711586D01*
X106634448Y-131557772D01*
X106694463Y-131412883D01*
X106781592Y-131282485D01*
X106892485Y-131171592D01*
X107022883Y-131084463D01*
X107167772Y-131024448D01*
X107321586Y-130993852D01*
X107478414Y-130993852D01*
X107632228Y-131024448D01*
G37*
G36*
X115252228Y-131024448D02*
G01*
X115397117Y-131084463D01*
X115527515Y-131171592D01*
X115638408Y-131282485D01*
X115725537Y-131412883D01*
X115785552Y-131557772D01*
X115816148Y-131711586D01*
X115816148Y-131868414D01*
X115785552Y-132022228D01*
X115725537Y-132167117D01*
X115638408Y-132297515D01*
X115527515Y-132408408D01*
X115397117Y-132495537D01*
X115252228Y-132555552D01*
X115098414Y-132586148D01*
X114941586Y-132586148D01*
X114787772Y-132555552D01*
X114642883Y-132495537D01*
X114512485Y-132408408D01*
X114401592Y-132297515D01*
X114314463Y-132167117D01*
X114254448Y-132022228D01*
X114223852Y-131868414D01*
X114223852Y-131711586D01*
X114254448Y-131557772D01*
X114314463Y-131412883D01*
X114401592Y-131282485D01*
X114512485Y-131171592D01*
X114642883Y-131084463D01*
X114787772Y-131024448D01*
X114941586Y-130993852D01*
X115098414Y-130993852D01*
X115252228Y-131024448D01*
G37*
G36*
X174433116Y-127174575D02*
G01*
X174615770Y-127210907D01*
X174787827Y-127282175D01*
X174942674Y-127385640D01*
X175074360Y-127517326D01*
X175177825Y-127672173D01*
X175249093Y-127844230D01*
X175285425Y-128026884D01*
X175285425Y-128213116D01*
X175249093Y-128395770D01*
X175177825Y-128567827D01*
X175074360Y-128722674D01*
X174942674Y-128854360D01*
X174787827Y-128957825D01*
X174615770Y-129029093D01*
X174433116Y-129065425D01*
X174340000Y-129070000D01*
X174338522Y-129070000D01*
X173041478Y-129070000D01*
X173040000Y-129070000D01*
X172946884Y-129065425D01*
X172764230Y-129029093D01*
X172592173Y-128957825D01*
X172437326Y-128854360D01*
X172305640Y-128722674D01*
X172202175Y-128567827D01*
X172130907Y-128395770D01*
X172094575Y-128213116D01*
X172094575Y-128026884D01*
X172130907Y-127844230D01*
X172202175Y-127672173D01*
X172305640Y-127517326D01*
X172437326Y-127385640D01*
X172592173Y-127282175D01*
X172764230Y-127210907D01*
X172946884Y-127174575D01*
X173040000Y-127170000D01*
X174340000Y-127170000D01*
X174433116Y-127174575D01*
G37*
G36*
X186933116Y-127174575D02*
G01*
X187115770Y-127210907D01*
X187287827Y-127282175D01*
X187442674Y-127385640D01*
X187574360Y-127517326D01*
X187677825Y-127672173D01*
X187749093Y-127844230D01*
X187785425Y-128026884D01*
X187785425Y-128213116D01*
X187749093Y-128395770D01*
X187677825Y-128567827D01*
X187574360Y-128722674D01*
X187442674Y-128854360D01*
X187287827Y-128957825D01*
X187115770Y-129029093D01*
X186933116Y-129065425D01*
X186840000Y-129070000D01*
X186838522Y-129070000D01*
X185541478Y-129070000D01*
X185540000Y-129070000D01*
X185446884Y-129065425D01*
X185264230Y-129029093D01*
X185092173Y-128957825D01*
X184937326Y-128854360D01*
X184805640Y-128722674D01*
X184702175Y-128567827D01*
X184630907Y-128395770D01*
X184594575Y-128213116D01*
X184594575Y-128026884D01*
X184630907Y-127844230D01*
X184702175Y-127672173D01*
X184805640Y-127517326D01*
X184937326Y-127385640D01*
X185092173Y-127282175D01*
X185264230Y-127210907D01*
X185446884Y-127174575D01*
X185540000Y-127170000D01*
X186840000Y-127170000D01*
X186933116Y-127174575D01*
G37*
G36*
X192683116Y-127174575D02*
G01*
X192865770Y-127210907D01*
X193037827Y-127282175D01*
X193192674Y-127385640D01*
X193324360Y-127517326D01*
X193427825Y-127672173D01*
X193499093Y-127844230D01*
X193535425Y-128026884D01*
X193535425Y-128213116D01*
X193499093Y-128395770D01*
X193427825Y-128567827D01*
X193324360Y-128722674D01*
X193192674Y-128854360D01*
X193037827Y-128957825D01*
X192865770Y-129029093D01*
X192683116Y-129065425D01*
X192590000Y-129070000D01*
X192588522Y-129070000D01*
X191291478Y-129070000D01*
X191290000Y-129070000D01*
X191196884Y-129065425D01*
X191014230Y-129029093D01*
X190842173Y-128957825D01*
X190687326Y-128854360D01*
X190555640Y-128722674D01*
X190452175Y-128567827D01*
X190380907Y-128395770D01*
X190344575Y-128213116D01*
X190344575Y-128026884D01*
X190380907Y-127844230D01*
X190452175Y-127672173D01*
X190555640Y-127517326D01*
X190687326Y-127385640D01*
X190842173Y-127282175D01*
X191014230Y-127210907D01*
X191196884Y-127174575D01*
X191290000Y-127170000D01*
X192590000Y-127170000D01*
X192683116Y-127174575D01*
G37*
G36*
X205183116Y-127174575D02*
G01*
X205365770Y-127210907D01*
X205537827Y-127282175D01*
X205692674Y-127385640D01*
X205824360Y-127517326D01*
X205927825Y-127672173D01*
X205999093Y-127844230D01*
X206035425Y-128026884D01*
X206035425Y-128213116D01*
X205999093Y-128395770D01*
X205927825Y-128567827D01*
X205824360Y-128722674D01*
X205692674Y-128854360D01*
X205537827Y-128957825D01*
X205365770Y-129029093D01*
X205183116Y-129065425D01*
X205090000Y-129070000D01*
X205088522Y-129070000D01*
X203791478Y-129070000D01*
X203790000Y-129070000D01*
X203696884Y-129065425D01*
X203514230Y-129029093D01*
X203342173Y-128957825D01*
X203187326Y-128854360D01*
X203055640Y-128722674D01*
X202952175Y-128567827D01*
X202880907Y-128395770D01*
X202844575Y-128213116D01*
X202844575Y-128026884D01*
X202880907Y-127844230D01*
X202952175Y-127672173D01*
X203055640Y-127517326D01*
X203187326Y-127385640D01*
X203342173Y-127282175D01*
X203514230Y-127210907D01*
X203696884Y-127174575D01*
X203790000Y-127170000D01*
X205090000Y-127170000D01*
X205183116Y-127174575D01*
G37*
G36*
X220493116Y-127174575D02*
G01*
X220675770Y-127210907D01*
X220847827Y-127282175D01*
X221002674Y-127385640D01*
X221134360Y-127517326D01*
X221237825Y-127672173D01*
X221309093Y-127844230D01*
X221345425Y-128026884D01*
X221345425Y-128213116D01*
X221309093Y-128395770D01*
X221237825Y-128567827D01*
X221134360Y-128722674D01*
X221002674Y-128854360D01*
X220847827Y-128957825D01*
X220675770Y-129029093D01*
X220493116Y-129065425D01*
X220400000Y-129070000D01*
X220398522Y-129070000D01*
X219101478Y-129070000D01*
X219100000Y-129070000D01*
X219006884Y-129065425D01*
X218824230Y-129029093D01*
X218652173Y-128957825D01*
X218497326Y-128854360D01*
X218365640Y-128722674D01*
X218262175Y-128567827D01*
X218190907Y-128395770D01*
X218154575Y-128213116D01*
X218154575Y-128026884D01*
X218190907Y-127844230D01*
X218262175Y-127672173D01*
X218365640Y-127517326D01*
X218497326Y-127385640D01*
X218652173Y-127282175D01*
X218824230Y-127210907D01*
X219006884Y-127174575D01*
X219100000Y-127170000D01*
X220400000Y-127170000D01*
X220493116Y-127174575D01*
G37*
G36*
X232993116Y-127174575D02*
G01*
X233175770Y-127210907D01*
X233347827Y-127282175D01*
X233502674Y-127385640D01*
X233634360Y-127517326D01*
X233737825Y-127672173D01*
X233809093Y-127844230D01*
X233845425Y-128026884D01*
X233845425Y-128213116D01*
X233809093Y-128395770D01*
X233737825Y-128567827D01*
X233634360Y-128722674D01*
X233502674Y-128854360D01*
X233347827Y-128957825D01*
X233175770Y-129029093D01*
X232993116Y-129065425D01*
X232900000Y-129070000D01*
X232898522Y-129070000D01*
X231601478Y-129070000D01*
X231600000Y-129070000D01*
X231506884Y-129065425D01*
X231324230Y-129029093D01*
X231152173Y-128957825D01*
X230997326Y-128854360D01*
X230865640Y-128722674D01*
X230762175Y-128567827D01*
X230690907Y-128395770D01*
X230654575Y-128213116D01*
X230654575Y-128026884D01*
X230690907Y-127844230D01*
X230762175Y-127672173D01*
X230865640Y-127517326D01*
X230997326Y-127385640D01*
X231152173Y-127282175D01*
X231324230Y-127210907D01*
X231506884Y-127174575D01*
X231600000Y-127170000D01*
X232900000Y-127170000D01*
X232993116Y-127174575D01*
G37*
G36*
X160919034Y-126215764D02*
G01*
X160952125Y-126237875D01*
X160974236Y-126270966D01*
X160982000Y-126310000D01*
X160982000Y-127870000D01*
X160974236Y-127909034D01*
X160952125Y-127942125D01*
X160919034Y-127964236D01*
X160880000Y-127972000D01*
X159320000Y-127972000D01*
X159280966Y-127964236D01*
X159247875Y-127942125D01*
X159225764Y-127909034D01*
X159218000Y-127870000D01*
X159218000Y-126310000D01*
X159225764Y-126270966D01*
X159247875Y-126237875D01*
X159280966Y-126215764D01*
X159320000Y-126208000D01*
X160880000Y-126208000D01*
X160919034Y-126215764D01*
G37*
G36*
X134956031Y-126245979D02*
G01*
X135115772Y-126312145D01*
X135259535Y-126408205D01*
X135381795Y-126530465D01*
X135477855Y-126674228D01*
X135544021Y-126833969D01*
X135577753Y-127003549D01*
X135577753Y-127176451D01*
X135544021Y-127346031D01*
X135477855Y-127505772D01*
X135381795Y-127649535D01*
X135259535Y-127771795D01*
X135115772Y-127867855D01*
X134956031Y-127934021D01*
X134786451Y-127967753D01*
X134613549Y-127967753D01*
X134443969Y-127934021D01*
X134284228Y-127867855D01*
X134140465Y-127771795D01*
X134018205Y-127649535D01*
X133922145Y-127505772D01*
X133855979Y-127346031D01*
X133822247Y-127176451D01*
X133822247Y-127003549D01*
X133855979Y-126833969D01*
X133922145Y-126674228D01*
X134018205Y-126530465D01*
X134140465Y-126408205D01*
X134284228Y-126312145D01*
X134443969Y-126245979D01*
X134613549Y-126212247D01*
X134786451Y-126212247D01*
X134956031Y-126245979D01*
G37*
G36*
X88443116Y-125844575D02*
G01*
X88625770Y-125880907D01*
X88797827Y-125952175D01*
X88952674Y-126055640D01*
X89084360Y-126187326D01*
X89187825Y-126342173D01*
X89259093Y-126514230D01*
X89295425Y-126696884D01*
X89295425Y-126883116D01*
X89259093Y-127065770D01*
X89187825Y-127237827D01*
X89084360Y-127392674D01*
X88952674Y-127524360D01*
X88797827Y-127627825D01*
X88625770Y-127699093D01*
X88443116Y-127735425D01*
X88350000Y-127740000D01*
X88348522Y-127740000D01*
X87051478Y-127740000D01*
X87050000Y-127740000D01*
X86956884Y-127735425D01*
X86774230Y-127699093D01*
X86602173Y-127627825D01*
X86447326Y-127524360D01*
X86315640Y-127392674D01*
X86212175Y-127237827D01*
X86140907Y-127065770D01*
X86104575Y-126883116D01*
X86104575Y-126696884D01*
X86140907Y-126514230D01*
X86212175Y-126342173D01*
X86315640Y-126187326D01*
X86447326Y-126055640D01*
X86602173Y-125952175D01*
X86774230Y-125880907D01*
X86956884Y-125844575D01*
X87050000Y-125840000D01*
X88350000Y-125840000D01*
X88443116Y-125844575D01*
G37*
G36*
X100943116Y-125844575D02*
G01*
X101125770Y-125880907D01*
X101297827Y-125952175D01*
X101452674Y-126055640D01*
X101584360Y-126187326D01*
X101687825Y-126342173D01*
X101759093Y-126514230D01*
X101795425Y-126696884D01*
X101795425Y-126883116D01*
X101759093Y-127065770D01*
X101687825Y-127237827D01*
X101584360Y-127392674D01*
X101452674Y-127524360D01*
X101297827Y-127627825D01*
X101125770Y-127699093D01*
X100943116Y-127735425D01*
X100850000Y-127740000D01*
X100848522Y-127740000D01*
X99551478Y-127740000D01*
X99550000Y-127740000D01*
X99456884Y-127735425D01*
X99274230Y-127699093D01*
X99102173Y-127627825D01*
X98947326Y-127524360D01*
X98815640Y-127392674D01*
X98712175Y-127237827D01*
X98640907Y-127065770D01*
X98604575Y-126883116D01*
X98604575Y-126696884D01*
X98640907Y-126514230D01*
X98712175Y-126342173D01*
X98815640Y-126187326D01*
X98947326Y-126055640D01*
X99102173Y-125952175D01*
X99274230Y-125880907D01*
X99456884Y-125844575D01*
X99550000Y-125840000D01*
X100850000Y-125840000D01*
X100943116Y-125844575D01*
G37*
G36*
X213190000Y-126520000D02*
G01*
X211390000Y-126520000D01*
X211390000Y-124720000D01*
X213190000Y-124720000D01*
X213190000Y-126520000D01*
G37*
G36*
X210011256Y-124758754D02*
G01*
X210174257Y-124826271D01*
X210320954Y-124924291D01*
X210445709Y-125049046D01*
X210543729Y-125195743D01*
X210611246Y-125358744D01*
X210645666Y-125531785D01*
X210645666Y-125708215D01*
X210611246Y-125881256D01*
X210543729Y-126044257D01*
X210445709Y-126190954D01*
X210320954Y-126315709D01*
X210174257Y-126413729D01*
X210011256Y-126481246D01*
X209838215Y-126515666D01*
X209661785Y-126515666D01*
X209488744Y-126481246D01*
X209325743Y-126413729D01*
X209179046Y-126315709D01*
X209054291Y-126190954D01*
X208956271Y-126044257D01*
X208888754Y-125881256D01*
X208854334Y-125708215D01*
X208854334Y-125531785D01*
X208888754Y-125358744D01*
X208956271Y-125195743D01*
X209054291Y-125049046D01*
X209179046Y-124924291D01*
X209325743Y-124826271D01*
X209488744Y-124758754D01*
X209661785Y-124724334D01*
X209838215Y-124724334D01*
X210011256Y-124758754D01*
G37*
G36*
X168482228Y-124544448D02*
G01*
X168627117Y-124604463D01*
X168757515Y-124691592D01*
X168868408Y-124802485D01*
X168955537Y-124932883D01*
X169015552Y-125077772D01*
X169046148Y-125231586D01*
X169046148Y-125388414D01*
X169015552Y-125542228D01*
X168955537Y-125687117D01*
X168868408Y-125817515D01*
X168757515Y-125928408D01*
X168627117Y-126015537D01*
X168482228Y-126075552D01*
X168328414Y-126106148D01*
X168171586Y-126106148D01*
X168017772Y-126075552D01*
X167872883Y-126015537D01*
X167742485Y-125928408D01*
X167631592Y-125817515D01*
X167544463Y-125687117D01*
X167484448Y-125542228D01*
X167453852Y-125388414D01*
X167453852Y-125231586D01*
X167484448Y-125077772D01*
X167544463Y-124932883D01*
X167631592Y-124802485D01*
X167742485Y-124691592D01*
X167872883Y-124604463D01*
X168017772Y-124544448D01*
X168171586Y-124513852D01*
X168328414Y-124513852D01*
X168482228Y-124544448D01*
G37*
G36*
X134956031Y-123705979D02*
G01*
X135115772Y-123772145D01*
X135259535Y-123868205D01*
X135381795Y-123990465D01*
X135477855Y-124134228D01*
X135544021Y-124293969D01*
X135577753Y-124463549D01*
X135577753Y-124636451D01*
X135544021Y-124806031D01*
X135477855Y-124965772D01*
X135381795Y-125109535D01*
X135259535Y-125231795D01*
X135115772Y-125327855D01*
X134956031Y-125394021D01*
X134786451Y-125427753D01*
X134613549Y-125427753D01*
X134443969Y-125394021D01*
X134284228Y-125327855D01*
X134140465Y-125231795D01*
X134018205Y-125109535D01*
X133922145Y-124965772D01*
X133855979Y-124806031D01*
X133822247Y-124636451D01*
X133822247Y-124463549D01*
X133855979Y-124293969D01*
X133922145Y-124134228D01*
X134018205Y-123990465D01*
X134140465Y-123868205D01*
X134284228Y-123772145D01*
X134443969Y-123705979D01*
X134613549Y-123672247D01*
X134786451Y-123672247D01*
X134956031Y-123705979D01*
G37*
G36*
X160356031Y-123705979D02*
G01*
X160515772Y-123772145D01*
X160659535Y-123868205D01*
X160781795Y-123990465D01*
X160877855Y-124134228D01*
X160944021Y-124293969D01*
X160977753Y-124463549D01*
X160977753Y-124636451D01*
X160944021Y-124806031D01*
X160877855Y-124965772D01*
X160781795Y-125109535D01*
X160659535Y-125231795D01*
X160515772Y-125327855D01*
X160356031Y-125394021D01*
X160186451Y-125427753D01*
X160013549Y-125427753D01*
X159843969Y-125394021D01*
X159684228Y-125327855D01*
X159540465Y-125231795D01*
X159418205Y-125109535D01*
X159322145Y-124965772D01*
X159255979Y-124806031D01*
X159222247Y-124636451D01*
X159222247Y-124463549D01*
X159255979Y-124293969D01*
X159322145Y-124134228D01*
X159418205Y-123990465D01*
X159540465Y-123868205D01*
X159684228Y-123772145D01*
X159843969Y-123705979D01*
X160013549Y-123672247D01*
X160186451Y-123672247D01*
X160356031Y-123705979D01*
G37*
G36*
X174433116Y-122174575D02*
G01*
X174615770Y-122210907D01*
X174787827Y-122282175D01*
X174942674Y-122385640D01*
X175074360Y-122517326D01*
X175177825Y-122672173D01*
X175249093Y-122844230D01*
X175285425Y-123026884D01*
X175285425Y-123213116D01*
X175249093Y-123395770D01*
X175177825Y-123567827D01*
X175074360Y-123722674D01*
X174942674Y-123854360D01*
X174787827Y-123957825D01*
X174615770Y-124029093D01*
X174433116Y-124065425D01*
X174340000Y-124070000D01*
X174338522Y-124070000D01*
X173041478Y-124070000D01*
X173040000Y-124070000D01*
X172946884Y-124065425D01*
X172764230Y-124029093D01*
X172592173Y-123957825D01*
X172437326Y-123854360D01*
X172305640Y-123722674D01*
X172202175Y-123567827D01*
X172130907Y-123395770D01*
X172094575Y-123213116D01*
X172094575Y-123026884D01*
X172130907Y-122844230D01*
X172202175Y-122672173D01*
X172305640Y-122517326D01*
X172437326Y-122385640D01*
X172592173Y-122282175D01*
X172764230Y-122210907D01*
X172946884Y-122174575D01*
X173040000Y-122170000D01*
X174340000Y-122170000D01*
X174433116Y-122174575D01*
G37*
G36*
X186933116Y-122174575D02*
G01*
X187115770Y-122210907D01*
X187287827Y-122282175D01*
X187442674Y-122385640D01*
X187574360Y-122517326D01*
X187677825Y-122672173D01*
X187749093Y-122844230D01*
X187785425Y-123026884D01*
X187785425Y-123213116D01*
X187749093Y-123395770D01*
X187677825Y-123567827D01*
X187574360Y-123722674D01*
X187442674Y-123854360D01*
X187287827Y-123957825D01*
X187115770Y-124029093D01*
X186933116Y-124065425D01*
X186840000Y-124070000D01*
X186838522Y-124070000D01*
X185541478Y-124070000D01*
X185540000Y-124070000D01*
X185446884Y-124065425D01*
X185264230Y-124029093D01*
X185092173Y-123957825D01*
X184937326Y-123854360D01*
X184805640Y-123722674D01*
X184702175Y-123567827D01*
X184630907Y-123395770D01*
X184594575Y-123213116D01*
X184594575Y-123026884D01*
X184630907Y-122844230D01*
X184702175Y-122672173D01*
X184805640Y-122517326D01*
X184937326Y-122385640D01*
X185092173Y-122282175D01*
X185264230Y-122210907D01*
X185446884Y-122174575D01*
X185540000Y-122170000D01*
X186840000Y-122170000D01*
X186933116Y-122174575D01*
G37*
G36*
X192683116Y-122174575D02*
G01*
X192865770Y-122210907D01*
X193037827Y-122282175D01*
X193192674Y-122385640D01*
X193324360Y-122517326D01*
X193427825Y-122672173D01*
X193499093Y-122844230D01*
X193535425Y-123026884D01*
X193535425Y-123213116D01*
X193499093Y-123395770D01*
X193427825Y-123567827D01*
X193324360Y-123722674D01*
X193192674Y-123854360D01*
X193037827Y-123957825D01*
X192865770Y-124029093D01*
X192683116Y-124065425D01*
X192590000Y-124070000D01*
X192588522Y-124070000D01*
X191291478Y-124070000D01*
X191290000Y-124070000D01*
X191196884Y-124065425D01*
X191014230Y-124029093D01*
X190842173Y-123957825D01*
X190687326Y-123854360D01*
X190555640Y-123722674D01*
X190452175Y-123567827D01*
X190380907Y-123395770D01*
X190344575Y-123213116D01*
X190344575Y-123026884D01*
X190380907Y-122844230D01*
X190452175Y-122672173D01*
X190555640Y-122517326D01*
X190687326Y-122385640D01*
X190842173Y-122282175D01*
X191014230Y-122210907D01*
X191196884Y-122174575D01*
X191290000Y-122170000D01*
X192590000Y-122170000D01*
X192683116Y-122174575D01*
G37*
G36*
X205183116Y-122174575D02*
G01*
X205365770Y-122210907D01*
X205537827Y-122282175D01*
X205692674Y-122385640D01*
X205824360Y-122517326D01*
X205927825Y-122672173D01*
X205999093Y-122844230D01*
X206035425Y-123026884D01*
X206035425Y-123213116D01*
X205999093Y-123395770D01*
X205927825Y-123567827D01*
X205824360Y-123722674D01*
X205692674Y-123854360D01*
X205537827Y-123957825D01*
X205365770Y-124029093D01*
X205183116Y-124065425D01*
X205090000Y-124070000D01*
X205088522Y-124070000D01*
X203791478Y-124070000D01*
X203790000Y-124070000D01*
X203696884Y-124065425D01*
X203514230Y-124029093D01*
X203342173Y-123957825D01*
X203187326Y-123854360D01*
X203055640Y-123722674D01*
X202952175Y-123567827D01*
X202880907Y-123395770D01*
X202844575Y-123213116D01*
X202844575Y-123026884D01*
X202880907Y-122844230D01*
X202952175Y-122672173D01*
X203055640Y-122517326D01*
X203187326Y-122385640D01*
X203342173Y-122282175D01*
X203514230Y-122210907D01*
X203696884Y-122174575D01*
X203790000Y-122170000D01*
X205090000Y-122170000D01*
X205183116Y-122174575D01*
G37*
G36*
X220493116Y-122174575D02*
G01*
X220675770Y-122210907D01*
X220847827Y-122282175D01*
X221002674Y-122385640D01*
X221134360Y-122517326D01*
X221237825Y-122672173D01*
X221309093Y-122844230D01*
X221345425Y-123026884D01*
X221345425Y-123213116D01*
X221309093Y-123395770D01*
X221237825Y-123567827D01*
X221134360Y-123722674D01*
X221002674Y-123854360D01*
X220847827Y-123957825D01*
X220675770Y-124029093D01*
X220493116Y-124065425D01*
X220400000Y-124070000D01*
X220398522Y-124070000D01*
X219101478Y-124070000D01*
X219100000Y-124070000D01*
X219006884Y-124065425D01*
X218824230Y-124029093D01*
X218652173Y-123957825D01*
X218497326Y-123854360D01*
X218365640Y-123722674D01*
X218262175Y-123567827D01*
X218190907Y-123395770D01*
X218154575Y-123213116D01*
X218154575Y-123026884D01*
X218190907Y-122844230D01*
X218262175Y-122672173D01*
X218365640Y-122517326D01*
X218497326Y-122385640D01*
X218652173Y-122282175D01*
X218824230Y-122210907D01*
X219006884Y-122174575D01*
X219100000Y-122170000D01*
X220400000Y-122170000D01*
X220493116Y-122174575D01*
G37*
G36*
X232993116Y-122174575D02*
G01*
X233175770Y-122210907D01*
X233347827Y-122282175D01*
X233502674Y-122385640D01*
X233634360Y-122517326D01*
X233737825Y-122672173D01*
X233809093Y-122844230D01*
X233845425Y-123026884D01*
X233845425Y-123213116D01*
X233809093Y-123395770D01*
X233737825Y-123567827D01*
X233634360Y-123722674D01*
X233502674Y-123854360D01*
X233347827Y-123957825D01*
X233175770Y-124029093D01*
X232993116Y-124065425D01*
X232900000Y-124070000D01*
X232898522Y-124070000D01*
X231601478Y-124070000D01*
X231600000Y-124070000D01*
X231506884Y-124065425D01*
X231324230Y-124029093D01*
X231152173Y-123957825D01*
X230997326Y-123854360D01*
X230865640Y-123722674D01*
X230762175Y-123567827D01*
X230690907Y-123395770D01*
X230654575Y-123213116D01*
X230654575Y-123026884D01*
X230690907Y-122844230D01*
X230762175Y-122672173D01*
X230865640Y-122517326D01*
X230997326Y-122385640D01*
X231152173Y-122282175D01*
X231324230Y-122210907D01*
X231506884Y-122174575D01*
X231600000Y-122170000D01*
X232900000Y-122170000D01*
X232993116Y-122174575D01*
G37*
G36*
X110075000Y-123565000D02*
G01*
X108325000Y-123565000D01*
X108325000Y-121815000D01*
X110075000Y-121815000D01*
X110075000Y-123565000D01*
G37*
G36*
X123175000Y-123565000D02*
G01*
X121425000Y-123565000D01*
X121425000Y-121815000D01*
X123175000Y-121815000D01*
X123175000Y-123565000D01*
G37*
G36*
X112953999Y-121852677D02*
G01*
X113112472Y-121918319D01*
X113255094Y-122013616D01*
X113376384Y-122134906D01*
X113471681Y-122277528D01*
X113537323Y-122436001D01*
X113570787Y-122604235D01*
X113570787Y-122775765D01*
X113537323Y-122943999D01*
X113471681Y-123102472D01*
X113376384Y-123245094D01*
X113255094Y-123366384D01*
X113112472Y-123461681D01*
X112953999Y-123527323D01*
X112785765Y-123560787D01*
X112614235Y-123560787D01*
X112446001Y-123527323D01*
X112287528Y-123461681D01*
X112144906Y-123366384D01*
X112023616Y-123245094D01*
X111928319Y-123102472D01*
X111862677Y-122943999D01*
X111829213Y-122775765D01*
X111829213Y-122604235D01*
X111862677Y-122436001D01*
X111928319Y-122277528D01*
X112023616Y-122134906D01*
X112144906Y-122013616D01*
X112287528Y-121918319D01*
X112446001Y-121852677D01*
X112614235Y-121819213D01*
X112785765Y-121819213D01*
X112953999Y-121852677D01*
G37*
G36*
X126053999Y-121852677D02*
G01*
X126212472Y-121918319D01*
X126355094Y-122013616D01*
X126476384Y-122134906D01*
X126571681Y-122277528D01*
X126637323Y-122436001D01*
X126670787Y-122604235D01*
X126670787Y-122775765D01*
X126637323Y-122943999D01*
X126571681Y-123102472D01*
X126476384Y-123245094D01*
X126355094Y-123366384D01*
X126212472Y-123461681D01*
X126053999Y-123527323D01*
X125885765Y-123560787D01*
X125714235Y-123560787D01*
X125546001Y-123527323D01*
X125387528Y-123461681D01*
X125244906Y-123366384D01*
X125123616Y-123245094D01*
X125028319Y-123102472D01*
X124962677Y-122943999D01*
X124929213Y-122775765D01*
X124929213Y-122604235D01*
X124962677Y-122436001D01*
X125028319Y-122277528D01*
X125123616Y-122134906D01*
X125244906Y-122013616D01*
X125387528Y-121918319D01*
X125546001Y-121852677D01*
X125714235Y-121819213D01*
X125885765Y-121819213D01*
X126053999Y-121852677D01*
G37*
G36*
X134956031Y-121165979D02*
G01*
X135115772Y-121232145D01*
X135259535Y-121328205D01*
X135381795Y-121450465D01*
X135477855Y-121594228D01*
X135544021Y-121753969D01*
X135577753Y-121923549D01*
X135577753Y-122096451D01*
X135544021Y-122266031D01*
X135477855Y-122425772D01*
X135381795Y-122569535D01*
X135259535Y-122691795D01*
X135115772Y-122787855D01*
X134956031Y-122854021D01*
X134786451Y-122887753D01*
X134613549Y-122887753D01*
X134443969Y-122854021D01*
X134284228Y-122787855D01*
X134140465Y-122691795D01*
X134018205Y-122569535D01*
X133922145Y-122425772D01*
X133855979Y-122266031D01*
X133822247Y-122096451D01*
X133822247Y-121923549D01*
X133855979Y-121753969D01*
X133922145Y-121594228D01*
X134018205Y-121450465D01*
X134140465Y-121328205D01*
X134284228Y-121232145D01*
X134443969Y-121165979D01*
X134613549Y-121132247D01*
X134786451Y-121132247D01*
X134956031Y-121165979D01*
G37*
G36*
X160356031Y-121165979D02*
G01*
X160515772Y-121232145D01*
X160659535Y-121328205D01*
X160781795Y-121450465D01*
X160877855Y-121594228D01*
X160944021Y-121753969D01*
X160977753Y-121923549D01*
X160977753Y-122096451D01*
X160944021Y-122266031D01*
X160877855Y-122425772D01*
X160781795Y-122569535D01*
X160659535Y-122691795D01*
X160515772Y-122787855D01*
X160356031Y-122854021D01*
X160186451Y-122887753D01*
X160013549Y-122887753D01*
X159843969Y-122854021D01*
X159684228Y-122787855D01*
X159540465Y-122691795D01*
X159418205Y-122569535D01*
X159322145Y-122425772D01*
X159255979Y-122266031D01*
X159222247Y-122096451D01*
X159222247Y-121923549D01*
X159255979Y-121753969D01*
X159322145Y-121594228D01*
X159418205Y-121450465D01*
X159540465Y-121328205D01*
X159684228Y-121232145D01*
X159843969Y-121165979D01*
X160013549Y-121132247D01*
X160186451Y-121132247D01*
X160356031Y-121165979D01*
G37*
G36*
X134956031Y-118625979D02*
G01*
X135115772Y-118692145D01*
X135259535Y-118788205D01*
X135381795Y-118910465D01*
X135477855Y-119054228D01*
X135544021Y-119213969D01*
X135577753Y-119383549D01*
X135577753Y-119556451D01*
X135544021Y-119726031D01*
X135477855Y-119885772D01*
X135381795Y-120029535D01*
X135259535Y-120151795D01*
X135115772Y-120247855D01*
X134956031Y-120314021D01*
X134786451Y-120347753D01*
X134613549Y-120347753D01*
X134443969Y-120314021D01*
X134284228Y-120247855D01*
X134140465Y-120151795D01*
X134018205Y-120029535D01*
X133922145Y-119885772D01*
X133855979Y-119726031D01*
X133822247Y-119556451D01*
X133822247Y-119383549D01*
X133855979Y-119213969D01*
X133922145Y-119054228D01*
X134018205Y-118910465D01*
X134140465Y-118788205D01*
X134284228Y-118692145D01*
X134443969Y-118625979D01*
X134613549Y-118592247D01*
X134786451Y-118592247D01*
X134956031Y-118625979D01*
G37*
G36*
X160356031Y-118625979D02*
G01*
X160515772Y-118692145D01*
X160659535Y-118788205D01*
X160781795Y-118910465D01*
X160877855Y-119054228D01*
X160944021Y-119213969D01*
X160977753Y-119383549D01*
X160977753Y-119556451D01*
X160944021Y-119726031D01*
X160877855Y-119885772D01*
X160781795Y-120029535D01*
X160659535Y-120151795D01*
X160515772Y-120247855D01*
X160356031Y-120314021D01*
X160186451Y-120347753D01*
X160013549Y-120347753D01*
X159843969Y-120314021D01*
X159684228Y-120247855D01*
X159540465Y-120151795D01*
X159418205Y-120029535D01*
X159322145Y-119885772D01*
X159255979Y-119726031D01*
X159222247Y-119556451D01*
X159222247Y-119383549D01*
X159255979Y-119213969D01*
X159322145Y-119054228D01*
X159418205Y-118910465D01*
X159540465Y-118788205D01*
X159684228Y-118692145D01*
X159843969Y-118625979D01*
X160013549Y-118592247D01*
X160186451Y-118592247D01*
X160356031Y-118625979D01*
G37*
G36*
X115465151Y-117477301D02*
G01*
X115666623Y-117542763D01*
X115855373Y-117638936D01*
X116026755Y-117763452D01*
X116176548Y-117913245D01*
X116301064Y-118084627D01*
X116397237Y-118273377D01*
X116462699Y-118474849D01*
X116495838Y-118684080D01*
X116495838Y-118895920D01*
X116462699Y-119105151D01*
X116397237Y-119306623D01*
X116301064Y-119495373D01*
X116176548Y-119666755D01*
X116026755Y-119816548D01*
X115855373Y-119941064D01*
X115666623Y-120037237D01*
X115465151Y-120102699D01*
X115255920Y-120135838D01*
X115044080Y-120135838D01*
X114834849Y-120102699D01*
X114633377Y-120037237D01*
X114444627Y-119941064D01*
X114273245Y-119816548D01*
X114123452Y-119666755D01*
X113998936Y-119495373D01*
X113902763Y-119306623D01*
X113837301Y-119105151D01*
X113804162Y-118895920D01*
X113804162Y-118684080D01*
X113837301Y-118474849D01*
X113902763Y-118273377D01*
X113998936Y-118084627D01*
X114123452Y-117913245D01*
X114273245Y-117763452D01*
X114444627Y-117638936D01*
X114633377Y-117542763D01*
X114834849Y-117477301D01*
X115044080Y-117444162D01*
X115255920Y-117444162D01*
X115465151Y-117477301D01*
G37*
G36*
X128565151Y-117477301D02*
G01*
X128766623Y-117542763D01*
X128955373Y-117638936D01*
X129126755Y-117763452D01*
X129276548Y-117913245D01*
X129401064Y-118084627D01*
X129497237Y-118273377D01*
X129562699Y-118474849D01*
X129595838Y-118684080D01*
X129595838Y-118895920D01*
X129562699Y-119105151D01*
X129497237Y-119306623D01*
X129401064Y-119495373D01*
X129276548Y-119666755D01*
X129126755Y-119816548D01*
X128955373Y-119941064D01*
X128766623Y-120037237D01*
X128565151Y-120102699D01*
X128355920Y-120135838D01*
X128144080Y-120135838D01*
X127934849Y-120102699D01*
X127733377Y-120037237D01*
X127544627Y-119941064D01*
X127373245Y-119816548D01*
X127223452Y-119666755D01*
X127098936Y-119495373D01*
X127002763Y-119306623D01*
X126937301Y-119105151D01*
X126904162Y-118895920D01*
X126904162Y-118684080D01*
X126937301Y-118474849D01*
X127002763Y-118273377D01*
X127098936Y-118084627D01*
X127223452Y-117913245D01*
X127373245Y-117763452D01*
X127544627Y-117638936D01*
X127733377Y-117542763D01*
X127934849Y-117477301D01*
X128144080Y-117444162D01*
X128355920Y-117444162D01*
X128565151Y-117477301D01*
G37*
G36*
X107065151Y-116277301D02*
G01*
X107266623Y-116342763D01*
X107455373Y-116438936D01*
X107626755Y-116563452D01*
X107776548Y-116713245D01*
X107901064Y-116884627D01*
X107997237Y-117073377D01*
X108062699Y-117274849D01*
X108095838Y-117484080D01*
X108095838Y-117695920D01*
X108062699Y-117905151D01*
X107997237Y-118106623D01*
X107901064Y-118295373D01*
X107776548Y-118466755D01*
X107626755Y-118616548D01*
X107455373Y-118741064D01*
X107266623Y-118837237D01*
X107065151Y-118902699D01*
X106855920Y-118935838D01*
X106644080Y-118935838D01*
X106434849Y-118902699D01*
X106233377Y-118837237D01*
X106044627Y-118741064D01*
X105873245Y-118616548D01*
X105723452Y-118466755D01*
X105598936Y-118295373D01*
X105502763Y-118106623D01*
X105437301Y-117905151D01*
X105404162Y-117695920D01*
X105404162Y-117484080D01*
X105437301Y-117274849D01*
X105502763Y-117073377D01*
X105598936Y-116884627D01*
X105723452Y-116713245D01*
X105873245Y-116563452D01*
X106044627Y-116438936D01*
X106233377Y-116342763D01*
X106434849Y-116277301D01*
X106644080Y-116244162D01*
X106855920Y-116244162D01*
X107065151Y-116277301D01*
G37*
G36*
X120165151Y-116277301D02*
G01*
X120366623Y-116342763D01*
X120555373Y-116438936D01*
X120726755Y-116563452D01*
X120876548Y-116713245D01*
X121001064Y-116884627D01*
X121097237Y-117073377D01*
X121162699Y-117274849D01*
X121195838Y-117484080D01*
X121195838Y-117695920D01*
X121162699Y-117905151D01*
X121097237Y-118106623D01*
X121001064Y-118295373D01*
X120876548Y-118466755D01*
X120726755Y-118616548D01*
X120555373Y-118741064D01*
X120366623Y-118837237D01*
X120165151Y-118902699D01*
X119955920Y-118935838D01*
X119744080Y-118935838D01*
X119534849Y-118902699D01*
X119333377Y-118837237D01*
X119144627Y-118741064D01*
X118973245Y-118616548D01*
X118823452Y-118466755D01*
X118698936Y-118295373D01*
X118602763Y-118106623D01*
X118537301Y-117905151D01*
X118504162Y-117695920D01*
X118504162Y-117484080D01*
X118537301Y-117274849D01*
X118602763Y-117073377D01*
X118698936Y-116884627D01*
X118823452Y-116713245D01*
X118973245Y-116563452D01*
X119144627Y-116438936D01*
X119333377Y-116342763D01*
X119534849Y-116277301D01*
X119744080Y-116244162D01*
X119955920Y-116244162D01*
X120165151Y-116277301D01*
G37*
G36*
X134956031Y-116085979D02*
G01*
X135115772Y-116152145D01*
X135259535Y-116248205D01*
X135381795Y-116370465D01*
X135477855Y-116514228D01*
X135544021Y-116673969D01*
X135577753Y-116843549D01*
X135577753Y-117016451D01*
X135544021Y-117186031D01*
X135477855Y-117345772D01*
X135381795Y-117489535D01*
X135259535Y-117611795D01*
X135115772Y-117707855D01*
X134956031Y-117774021D01*
X134786451Y-117807753D01*
X134613549Y-117807753D01*
X134443969Y-117774021D01*
X134284228Y-117707855D01*
X134140465Y-117611795D01*
X134018205Y-117489535D01*
X133922145Y-117345772D01*
X133855979Y-117186031D01*
X133822247Y-117016451D01*
X133822247Y-116843549D01*
X133855979Y-116673969D01*
X133922145Y-116514228D01*
X134018205Y-116370465D01*
X134140465Y-116248205D01*
X134284228Y-116152145D01*
X134443969Y-116085979D01*
X134613549Y-116052247D01*
X134786451Y-116052247D01*
X134956031Y-116085979D01*
G37*
G36*
X160356031Y-116085979D02*
G01*
X160515772Y-116152145D01*
X160659535Y-116248205D01*
X160781795Y-116370465D01*
X160877855Y-116514228D01*
X160944021Y-116673969D01*
X160977753Y-116843549D01*
X160977753Y-117016451D01*
X160944021Y-117186031D01*
X160877855Y-117345772D01*
X160781795Y-117489535D01*
X160659535Y-117611795D01*
X160515772Y-117707855D01*
X160356031Y-117774021D01*
X160186451Y-117807753D01*
X160013549Y-117807753D01*
X159843969Y-117774021D01*
X159684228Y-117707855D01*
X159540465Y-117611795D01*
X159418205Y-117489535D01*
X159322145Y-117345772D01*
X159255979Y-117186031D01*
X159222247Y-117016451D01*
X159222247Y-116843549D01*
X159255979Y-116673969D01*
X159322145Y-116514228D01*
X159418205Y-116370465D01*
X159540465Y-116248205D01*
X159684228Y-116152145D01*
X159843969Y-116085979D01*
X160013549Y-116052247D01*
X160186451Y-116052247D01*
X160356031Y-116085979D01*
G37*
G36*
X88812228Y-116074448D02*
G01*
X88957117Y-116134463D01*
X89087515Y-116221592D01*
X89198408Y-116332485D01*
X89285537Y-116462883D01*
X89345552Y-116607772D01*
X89376148Y-116761586D01*
X89376148Y-116918414D01*
X89345552Y-117072228D01*
X89285537Y-117217117D01*
X89198408Y-117347515D01*
X89087515Y-117458408D01*
X88957117Y-117545537D01*
X88812228Y-117605552D01*
X88658414Y-117636148D01*
X88501586Y-117636148D01*
X88347772Y-117605552D01*
X88202883Y-117545537D01*
X88072485Y-117458408D01*
X87961592Y-117347515D01*
X87874463Y-117217117D01*
X87814448Y-117072228D01*
X87783852Y-116918414D01*
X87783852Y-116761586D01*
X87814448Y-116607772D01*
X87874463Y-116462883D01*
X87961592Y-116332485D01*
X88072485Y-116221592D01*
X88202883Y-116134463D01*
X88347772Y-116074448D01*
X88501586Y-116043852D01*
X88658414Y-116043852D01*
X88812228Y-116074448D01*
G37*
G36*
X96432228Y-116074448D02*
G01*
X96577117Y-116134463D01*
X96707515Y-116221592D01*
X96818408Y-116332485D01*
X96905537Y-116462883D01*
X96965552Y-116607772D01*
X96996148Y-116761586D01*
X96996148Y-116918414D01*
X96965552Y-117072228D01*
X96905537Y-117217117D01*
X96818408Y-117347515D01*
X96707515Y-117458408D01*
X96577117Y-117545537D01*
X96432228Y-117605552D01*
X96278414Y-117636148D01*
X96121586Y-117636148D01*
X95967772Y-117605552D01*
X95822883Y-117545537D01*
X95692485Y-117458408D01*
X95581592Y-117347515D01*
X95494463Y-117217117D01*
X95434448Y-117072228D01*
X95403852Y-116918414D01*
X95403852Y-116761586D01*
X95434448Y-116607772D01*
X95494463Y-116462883D01*
X95581592Y-116332485D01*
X95692485Y-116221592D01*
X95822883Y-116134463D01*
X95967772Y-116074448D01*
X96121586Y-116043852D01*
X96278414Y-116043852D01*
X96432228Y-116074448D01*
G37*
G36*
X176302228Y-114354448D02*
G01*
X176447117Y-114414463D01*
X176577515Y-114501592D01*
X176688408Y-114612485D01*
X176775537Y-114742883D01*
X176835552Y-114887772D01*
X176866148Y-115041586D01*
X176866148Y-115198414D01*
X176835552Y-115352228D01*
X176775537Y-115497117D01*
X176688408Y-115627515D01*
X176577515Y-115738408D01*
X176447117Y-115825537D01*
X176302228Y-115885552D01*
X176148414Y-115916148D01*
X175991586Y-115916148D01*
X175837772Y-115885552D01*
X175692883Y-115825537D01*
X175562485Y-115738408D01*
X175451592Y-115627515D01*
X175364463Y-115497117D01*
X175304448Y-115352228D01*
X175273852Y-115198414D01*
X175273852Y-115041586D01*
X175304448Y-114887772D01*
X175364463Y-114742883D01*
X175451592Y-114612485D01*
X175562485Y-114501592D01*
X175692883Y-114414463D01*
X175837772Y-114354448D01*
X175991586Y-114323852D01*
X176148414Y-114323852D01*
X176302228Y-114354448D01*
G37*
G36*
X183922228Y-114354448D02*
G01*
X184067117Y-114414463D01*
X184197515Y-114501592D01*
X184308408Y-114612485D01*
X184395537Y-114742883D01*
X184455552Y-114887772D01*
X184486148Y-115041586D01*
X184486148Y-115198414D01*
X184455552Y-115352228D01*
X184395537Y-115497117D01*
X184308408Y-115627515D01*
X184197515Y-115738408D01*
X184067117Y-115825537D01*
X183922228Y-115885552D01*
X183768414Y-115916148D01*
X183611586Y-115916148D01*
X183457772Y-115885552D01*
X183312883Y-115825537D01*
X183182485Y-115738408D01*
X183071592Y-115627515D01*
X182984463Y-115497117D01*
X182924448Y-115352228D01*
X182893852Y-115198414D01*
X182893852Y-115041586D01*
X182924448Y-114887772D01*
X182984463Y-114742883D01*
X183071592Y-114612485D01*
X183182485Y-114501592D01*
X183312883Y-114414463D01*
X183457772Y-114354448D01*
X183611586Y-114323852D01*
X183768414Y-114323852D01*
X183922228Y-114354448D01*
G37*
G36*
X194552228Y-113854448D02*
G01*
X194697117Y-113914463D01*
X194827515Y-114001592D01*
X194938408Y-114112485D01*
X195025537Y-114242883D01*
X195085552Y-114387772D01*
X195116148Y-114541586D01*
X195116148Y-114698414D01*
X195085552Y-114852228D01*
X195025537Y-114997117D01*
X194938408Y-115127515D01*
X194827515Y-115238408D01*
X194697117Y-115325537D01*
X194552228Y-115385552D01*
X194398414Y-115416148D01*
X194241586Y-115416148D01*
X194087772Y-115385552D01*
X193942883Y-115325537D01*
X193812485Y-115238408D01*
X193701592Y-115127515D01*
X193614463Y-114997117D01*
X193554448Y-114852228D01*
X193523852Y-114698414D01*
X193523852Y-114541586D01*
X193554448Y-114387772D01*
X193614463Y-114242883D01*
X193701592Y-114112485D01*
X193812485Y-114001592D01*
X193942883Y-113914463D01*
X194087772Y-113854448D01*
X194241586Y-113823852D01*
X194398414Y-113823852D01*
X194552228Y-113854448D01*
G37*
G36*
X202172228Y-113854448D02*
G01*
X202317117Y-113914463D01*
X202447515Y-114001592D01*
X202558408Y-114112485D01*
X202645537Y-114242883D01*
X202705552Y-114387772D01*
X202736148Y-114541586D01*
X202736148Y-114698414D01*
X202705552Y-114852228D01*
X202645537Y-114997117D01*
X202558408Y-115127515D01*
X202447515Y-115238408D01*
X202317117Y-115325537D01*
X202172228Y-115385552D01*
X202018414Y-115416148D01*
X201861586Y-115416148D01*
X201707772Y-115385552D01*
X201562883Y-115325537D01*
X201432485Y-115238408D01*
X201321592Y-115127515D01*
X201234463Y-114997117D01*
X201174448Y-114852228D01*
X201143852Y-114698414D01*
X201143852Y-114541586D01*
X201174448Y-114387772D01*
X201234463Y-114242883D01*
X201321592Y-114112485D01*
X201432485Y-114001592D01*
X201562883Y-113914463D01*
X201707772Y-113854448D01*
X201861586Y-113823852D01*
X202018414Y-113823852D01*
X202172228Y-113854448D01*
G37*
G36*
X212612228Y-113854448D02*
G01*
X212757117Y-113914463D01*
X212887515Y-114001592D01*
X212998408Y-114112485D01*
X213085537Y-114242883D01*
X213145552Y-114387772D01*
X213176148Y-114541586D01*
X213176148Y-114698414D01*
X213145552Y-114852228D01*
X213085537Y-114997117D01*
X212998408Y-115127515D01*
X212887515Y-115238408D01*
X212757117Y-115325537D01*
X212612228Y-115385552D01*
X212458414Y-115416148D01*
X212301586Y-115416148D01*
X212147772Y-115385552D01*
X212002883Y-115325537D01*
X211872485Y-115238408D01*
X211761592Y-115127515D01*
X211674463Y-114997117D01*
X211614448Y-114852228D01*
X211583852Y-114698414D01*
X211583852Y-114541586D01*
X211614448Y-114387772D01*
X211674463Y-114242883D01*
X211761592Y-114112485D01*
X211872485Y-114001592D01*
X212002883Y-113914463D01*
X212147772Y-113854448D01*
X212301586Y-113823852D01*
X212458414Y-113823852D01*
X212612228Y-113854448D01*
G37*
G36*
X220232228Y-113854448D02*
G01*
X220377117Y-113914463D01*
X220507515Y-114001592D01*
X220618408Y-114112485D01*
X220705537Y-114242883D01*
X220765552Y-114387772D01*
X220796148Y-114541586D01*
X220796148Y-114698414D01*
X220765552Y-114852228D01*
X220705537Y-114997117D01*
X220618408Y-115127515D01*
X220507515Y-115238408D01*
X220377117Y-115325537D01*
X220232228Y-115385552D01*
X220078414Y-115416148D01*
X219921586Y-115416148D01*
X219767772Y-115385552D01*
X219622883Y-115325537D01*
X219492485Y-115238408D01*
X219381592Y-115127515D01*
X219294463Y-114997117D01*
X219234448Y-114852228D01*
X219203852Y-114698414D01*
X219203852Y-114541586D01*
X219234448Y-114387772D01*
X219294463Y-114242883D01*
X219381592Y-114112485D01*
X219492485Y-114001592D01*
X219622883Y-113914463D01*
X219767772Y-113854448D01*
X219921586Y-113823852D01*
X220078414Y-113823852D01*
X220232228Y-113854448D01*
G37*
G36*
X134956031Y-113545979D02*
G01*
X135115772Y-113612145D01*
X135259535Y-113708205D01*
X135381795Y-113830465D01*
X135477855Y-113974228D01*
X135544021Y-114133969D01*
X135577753Y-114303549D01*
X135577753Y-114476451D01*
X135544021Y-114646031D01*
X135477855Y-114805772D01*
X135381795Y-114949535D01*
X135259535Y-115071795D01*
X135115772Y-115167855D01*
X134956031Y-115234021D01*
X134786451Y-115267753D01*
X134613549Y-115267753D01*
X134443969Y-115234021D01*
X134284228Y-115167855D01*
X134140465Y-115071795D01*
X134018205Y-114949535D01*
X133922145Y-114805772D01*
X133855979Y-114646031D01*
X133822247Y-114476451D01*
X133822247Y-114303549D01*
X133855979Y-114133969D01*
X133922145Y-113974228D01*
X134018205Y-113830465D01*
X134140465Y-113708205D01*
X134284228Y-113612145D01*
X134443969Y-113545979D01*
X134613549Y-113512247D01*
X134786451Y-113512247D01*
X134956031Y-113545979D01*
G37*
G36*
X160356031Y-113545979D02*
G01*
X160515772Y-113612145D01*
X160659535Y-113708205D01*
X160781795Y-113830465D01*
X160877855Y-113974228D01*
X160944021Y-114133969D01*
X160977753Y-114303549D01*
X160977753Y-114476451D01*
X160944021Y-114646031D01*
X160877855Y-114805772D01*
X160781795Y-114949535D01*
X160659535Y-115071795D01*
X160515772Y-115167855D01*
X160356031Y-115234021D01*
X160186451Y-115267753D01*
X160013549Y-115267753D01*
X159843969Y-115234021D01*
X159684228Y-115167855D01*
X159540465Y-115071795D01*
X159418205Y-114949535D01*
X159322145Y-114805772D01*
X159255979Y-114646031D01*
X159222247Y-114476451D01*
X159222247Y-114303549D01*
X159255979Y-114133969D01*
X159322145Y-113974228D01*
X159418205Y-113830465D01*
X159540465Y-113708205D01*
X159684228Y-113612145D01*
X159843969Y-113545979D01*
X160013549Y-113512247D01*
X160186451Y-113512247D01*
X160356031Y-113545979D01*
G37*
G36*
X134956031Y-111005979D02*
G01*
X135115772Y-111072145D01*
X135259535Y-111168205D01*
X135381795Y-111290465D01*
X135477855Y-111434228D01*
X135544021Y-111593969D01*
X135577753Y-111763549D01*
X135577753Y-111936451D01*
X135544021Y-112106031D01*
X135477855Y-112265772D01*
X135381795Y-112409535D01*
X135259535Y-112531795D01*
X135115772Y-112627855D01*
X134956031Y-112694021D01*
X134786451Y-112727753D01*
X134613549Y-112727753D01*
X134443969Y-112694021D01*
X134284228Y-112627855D01*
X134140465Y-112531795D01*
X134018205Y-112409535D01*
X133922145Y-112265772D01*
X133855979Y-112106031D01*
X133822247Y-111936451D01*
X133822247Y-111763549D01*
X133855979Y-111593969D01*
X133922145Y-111434228D01*
X134018205Y-111290465D01*
X134140465Y-111168205D01*
X134284228Y-111072145D01*
X134443969Y-111005979D01*
X134613549Y-110972247D01*
X134786451Y-110972247D01*
X134956031Y-111005979D01*
G37*
G36*
X160356031Y-111005979D02*
G01*
X160515772Y-111072145D01*
X160659535Y-111168205D01*
X160781795Y-111290465D01*
X160877855Y-111434228D01*
X160944021Y-111593969D01*
X160977753Y-111763549D01*
X160977753Y-111936451D01*
X160944021Y-112106031D01*
X160877855Y-112265772D01*
X160781795Y-112409535D01*
X160659535Y-112531795D01*
X160515772Y-112627855D01*
X160356031Y-112694021D01*
X160186451Y-112727753D01*
X160013549Y-112727753D01*
X159843969Y-112694021D01*
X159684228Y-112627855D01*
X159540465Y-112531795D01*
X159418205Y-112409535D01*
X159322145Y-112265772D01*
X159255979Y-112106031D01*
X159222247Y-111936451D01*
X159222247Y-111763549D01*
X159255979Y-111593969D01*
X159322145Y-111434228D01*
X159418205Y-111290465D01*
X159540465Y-111168205D01*
X159684228Y-111072145D01*
X159843969Y-111005979D01*
X160013549Y-110972247D01*
X160186451Y-110972247D01*
X160356031Y-111005979D01*
G37*
G36*
X176302228Y-108854448D02*
G01*
X176447117Y-108914463D01*
X176577515Y-109001592D01*
X176688408Y-109112485D01*
X176775537Y-109242883D01*
X176835552Y-109387772D01*
X176866148Y-109541586D01*
X176866148Y-109698414D01*
X176835552Y-109852228D01*
X176775537Y-109997117D01*
X176688408Y-110127515D01*
X176577515Y-110238408D01*
X176447117Y-110325537D01*
X176302228Y-110385552D01*
X176148414Y-110416148D01*
X175991586Y-110416148D01*
X175837772Y-110385552D01*
X175692883Y-110325537D01*
X175562485Y-110238408D01*
X175451592Y-110127515D01*
X175364463Y-109997117D01*
X175304448Y-109852228D01*
X175273852Y-109698414D01*
X175273852Y-109541586D01*
X175304448Y-109387772D01*
X175364463Y-109242883D01*
X175451592Y-109112485D01*
X175562485Y-109001592D01*
X175692883Y-108914463D01*
X175837772Y-108854448D01*
X175991586Y-108823852D01*
X176148414Y-108823852D01*
X176302228Y-108854448D01*
G37*
G36*
X183922228Y-108854448D02*
G01*
X184067117Y-108914463D01*
X184197515Y-109001592D01*
X184308408Y-109112485D01*
X184395537Y-109242883D01*
X184455552Y-109387772D01*
X184486148Y-109541586D01*
X184486148Y-109698414D01*
X184455552Y-109852228D01*
X184395537Y-109997117D01*
X184308408Y-110127515D01*
X184197515Y-110238408D01*
X184067117Y-110325537D01*
X183922228Y-110385552D01*
X183768414Y-110416148D01*
X183611586Y-110416148D01*
X183457772Y-110385552D01*
X183312883Y-110325537D01*
X183182485Y-110238408D01*
X183071592Y-110127515D01*
X182984463Y-109997117D01*
X182924448Y-109852228D01*
X182893852Y-109698414D01*
X182893852Y-109541586D01*
X182924448Y-109387772D01*
X182984463Y-109242883D01*
X183071592Y-109112485D01*
X183182485Y-109001592D01*
X183312883Y-108914463D01*
X183457772Y-108854448D01*
X183611586Y-108823852D01*
X183768414Y-108823852D01*
X183922228Y-108854448D01*
G37*
G36*
X194582228Y-108854448D02*
G01*
X194727117Y-108914463D01*
X194857515Y-109001592D01*
X194968408Y-109112485D01*
X195055537Y-109242883D01*
X195115552Y-109387772D01*
X195146148Y-109541586D01*
X195146148Y-109698414D01*
X195115552Y-109852228D01*
X195055537Y-109997117D01*
X194968408Y-110127515D01*
X194857515Y-110238408D01*
X194727117Y-110325537D01*
X194582228Y-110385552D01*
X194428414Y-110416148D01*
X194271586Y-110416148D01*
X194117772Y-110385552D01*
X193972883Y-110325537D01*
X193842485Y-110238408D01*
X193731592Y-110127515D01*
X193644463Y-109997117D01*
X193584448Y-109852228D01*
X193553852Y-109698414D01*
X193553852Y-109541586D01*
X193584448Y-109387772D01*
X193644463Y-109242883D01*
X193731592Y-109112485D01*
X193842485Y-109001592D01*
X193972883Y-108914463D01*
X194117772Y-108854448D01*
X194271586Y-108823852D01*
X194428414Y-108823852D01*
X194582228Y-108854448D01*
G37*
G36*
X202202228Y-108854448D02*
G01*
X202347117Y-108914463D01*
X202477515Y-109001592D01*
X202588408Y-109112485D01*
X202675537Y-109242883D01*
X202735552Y-109387772D01*
X202766148Y-109541586D01*
X202766148Y-109698414D01*
X202735552Y-109852228D01*
X202675537Y-109997117D01*
X202588408Y-110127515D01*
X202477515Y-110238408D01*
X202347117Y-110325537D01*
X202202228Y-110385552D01*
X202048414Y-110416148D01*
X201891586Y-110416148D01*
X201737772Y-110385552D01*
X201592883Y-110325537D01*
X201462485Y-110238408D01*
X201351592Y-110127515D01*
X201264463Y-109997117D01*
X201204448Y-109852228D01*
X201173852Y-109698414D01*
X201173852Y-109541586D01*
X201204448Y-109387772D01*
X201264463Y-109242883D01*
X201351592Y-109112485D01*
X201462485Y-109001592D01*
X201592883Y-108914463D01*
X201737772Y-108854448D01*
X201891586Y-108823852D01*
X202048414Y-108823852D01*
X202202228Y-108854448D01*
G37*
G36*
X212612228Y-108854448D02*
G01*
X212757117Y-108914463D01*
X212887515Y-109001592D01*
X212998408Y-109112485D01*
X213085537Y-109242883D01*
X213145552Y-109387772D01*
X213176148Y-109541586D01*
X213176148Y-109698414D01*
X213145552Y-109852228D01*
X213085537Y-109997117D01*
X212998408Y-110127515D01*
X212887515Y-110238408D01*
X212757117Y-110325537D01*
X212612228Y-110385552D01*
X212458414Y-110416148D01*
X212301586Y-110416148D01*
X212147772Y-110385552D01*
X212002883Y-110325537D01*
X211872485Y-110238408D01*
X211761592Y-110127515D01*
X211674463Y-109997117D01*
X211614448Y-109852228D01*
X211583852Y-109698414D01*
X211583852Y-109541586D01*
X211614448Y-109387772D01*
X211674463Y-109242883D01*
X211761592Y-109112485D01*
X211872485Y-109001592D01*
X212002883Y-108914463D01*
X212147772Y-108854448D01*
X212301586Y-108823852D01*
X212458414Y-108823852D01*
X212612228Y-108854448D01*
G37*
G36*
X220232228Y-108854448D02*
G01*
X220377117Y-108914463D01*
X220507515Y-109001592D01*
X220618408Y-109112485D01*
X220705537Y-109242883D01*
X220765552Y-109387772D01*
X220796148Y-109541586D01*
X220796148Y-109698414D01*
X220765552Y-109852228D01*
X220705537Y-109997117D01*
X220618408Y-110127515D01*
X220507515Y-110238408D01*
X220377117Y-110325537D01*
X220232228Y-110385552D01*
X220078414Y-110416148D01*
X219921586Y-110416148D01*
X219767772Y-110385552D01*
X219622883Y-110325537D01*
X219492485Y-110238408D01*
X219381592Y-110127515D01*
X219294463Y-109997117D01*
X219234448Y-109852228D01*
X219203852Y-109698414D01*
X219203852Y-109541586D01*
X219234448Y-109387772D01*
X219294463Y-109242883D01*
X219381592Y-109112485D01*
X219492485Y-109001592D01*
X219622883Y-108914463D01*
X219767772Y-108854448D01*
X219921586Y-108823852D01*
X220078414Y-108823852D01*
X220232228Y-108854448D01*
G37*
G36*
X134956031Y-108465979D02*
G01*
X135115772Y-108532145D01*
X135259535Y-108628205D01*
X135381795Y-108750465D01*
X135477855Y-108894228D01*
X135544021Y-109053969D01*
X135577753Y-109223549D01*
X135577753Y-109396451D01*
X135544021Y-109566031D01*
X135477855Y-109725772D01*
X135381795Y-109869535D01*
X135259535Y-109991795D01*
X135115772Y-110087855D01*
X134956031Y-110154021D01*
X134786451Y-110187753D01*
X134613549Y-110187753D01*
X134443969Y-110154021D01*
X134284228Y-110087855D01*
X134140465Y-109991795D01*
X134018205Y-109869535D01*
X133922145Y-109725772D01*
X133855979Y-109566031D01*
X133822247Y-109396451D01*
X133822247Y-109223549D01*
X133855979Y-109053969D01*
X133922145Y-108894228D01*
X134018205Y-108750465D01*
X134140465Y-108628205D01*
X134284228Y-108532145D01*
X134443969Y-108465979D01*
X134613549Y-108432247D01*
X134786451Y-108432247D01*
X134956031Y-108465979D01*
G37*
G36*
X160356031Y-108465979D02*
G01*
X160515772Y-108532145D01*
X160659535Y-108628205D01*
X160781795Y-108750465D01*
X160877855Y-108894228D01*
X160944021Y-109053969D01*
X160977753Y-109223549D01*
X160977753Y-109396451D01*
X160944021Y-109566031D01*
X160877855Y-109725772D01*
X160781795Y-109869535D01*
X160659535Y-109991795D01*
X160515772Y-110087855D01*
X160356031Y-110154021D01*
X160186451Y-110187753D01*
X160013549Y-110187753D01*
X159843969Y-110154021D01*
X159684228Y-110087855D01*
X159540465Y-109991795D01*
X159418205Y-109869535D01*
X159322145Y-109725772D01*
X159255979Y-109566031D01*
X159222247Y-109396451D01*
X159222247Y-109223549D01*
X159255979Y-109053969D01*
X159322145Y-108894228D01*
X159418205Y-108750465D01*
X159540465Y-108628205D01*
X159684228Y-108532145D01*
X159843969Y-108465979D01*
X160013549Y-108432247D01*
X160186451Y-108432247D01*
X160356031Y-108465979D01*
G37*
G36*
X88543116Y-107849575D02*
G01*
X88725770Y-107885907D01*
X88897827Y-107957175D01*
X89052674Y-108060640D01*
X89184360Y-108192326D01*
X89287825Y-108347173D01*
X89359093Y-108519230D01*
X89395425Y-108701884D01*
X89395425Y-108888116D01*
X89359093Y-109070770D01*
X89287825Y-109242827D01*
X89184360Y-109397674D01*
X89052674Y-109529360D01*
X88897827Y-109632825D01*
X88725770Y-109704093D01*
X88543116Y-109740425D01*
X88450000Y-109745000D01*
X88448522Y-109745000D01*
X87151478Y-109745000D01*
X87150000Y-109745000D01*
X87056884Y-109740425D01*
X86874230Y-109704093D01*
X86702173Y-109632825D01*
X86547326Y-109529360D01*
X86415640Y-109397674D01*
X86312175Y-109242827D01*
X86240907Y-109070770D01*
X86204575Y-108888116D01*
X86204575Y-108701884D01*
X86240907Y-108519230D01*
X86312175Y-108347173D01*
X86415640Y-108192326D01*
X86547326Y-108060640D01*
X86702173Y-107957175D01*
X86874230Y-107885907D01*
X87056884Y-107849575D01*
X87150000Y-107845000D01*
X88450000Y-107845000D01*
X88543116Y-107849575D01*
G37*
G36*
X101043116Y-107849575D02*
G01*
X101225770Y-107885907D01*
X101397827Y-107957175D01*
X101552674Y-108060640D01*
X101684360Y-108192326D01*
X101787825Y-108347173D01*
X101859093Y-108519230D01*
X101895425Y-108701884D01*
X101895425Y-108888116D01*
X101859093Y-109070770D01*
X101787825Y-109242827D01*
X101684360Y-109397674D01*
X101552674Y-109529360D01*
X101397827Y-109632825D01*
X101225770Y-109704093D01*
X101043116Y-109740425D01*
X100950000Y-109745000D01*
X100948522Y-109745000D01*
X99651478Y-109745000D01*
X99650000Y-109745000D01*
X99556884Y-109740425D01*
X99374230Y-109704093D01*
X99202173Y-109632825D01*
X99047326Y-109529360D01*
X98915640Y-109397674D01*
X98812175Y-109242827D01*
X98740907Y-109070770D01*
X98704575Y-108888116D01*
X98704575Y-108701884D01*
X98740907Y-108519230D01*
X98812175Y-108347173D01*
X98915640Y-108192326D01*
X99047326Y-108060640D01*
X99202173Y-107957175D01*
X99374230Y-107885907D01*
X99556884Y-107849575D01*
X99650000Y-107845000D01*
X100950000Y-107845000D01*
X101043116Y-107849575D01*
G37*
G36*
X134956031Y-105925979D02*
G01*
X135115772Y-105992145D01*
X135259535Y-106088205D01*
X135381795Y-106210465D01*
X135477855Y-106354228D01*
X135544021Y-106513969D01*
X135577753Y-106683549D01*
X135577753Y-106856451D01*
X135544021Y-107026031D01*
X135477855Y-107185772D01*
X135381795Y-107329535D01*
X135259535Y-107451795D01*
X135115772Y-107547855D01*
X134956031Y-107614021D01*
X134786451Y-107647753D01*
X134613549Y-107647753D01*
X134443969Y-107614021D01*
X134284228Y-107547855D01*
X134140465Y-107451795D01*
X134018205Y-107329535D01*
X133922145Y-107185772D01*
X133855979Y-107026031D01*
X133822247Y-106856451D01*
X133822247Y-106683549D01*
X133855979Y-106513969D01*
X133922145Y-106354228D01*
X134018205Y-106210465D01*
X134140465Y-106088205D01*
X134284228Y-105992145D01*
X134443969Y-105925979D01*
X134613549Y-105892247D01*
X134786451Y-105892247D01*
X134956031Y-105925979D01*
G37*
G36*
X160356031Y-105925979D02*
G01*
X160515772Y-105992145D01*
X160659535Y-106088205D01*
X160781795Y-106210465D01*
X160877855Y-106354228D01*
X160944021Y-106513969D01*
X160977753Y-106683549D01*
X160977753Y-106856451D01*
X160944021Y-107026031D01*
X160877855Y-107185772D01*
X160781795Y-107329535D01*
X160659535Y-107451795D01*
X160515772Y-107547855D01*
X160356031Y-107614021D01*
X160186451Y-107647753D01*
X160013549Y-107647753D01*
X159843969Y-107614021D01*
X159684228Y-107547855D01*
X159540465Y-107451795D01*
X159418205Y-107329535D01*
X159322145Y-107185772D01*
X159255979Y-107026031D01*
X159222247Y-106856451D01*
X159222247Y-106683549D01*
X159255979Y-106513969D01*
X159322145Y-106354228D01*
X159418205Y-106210465D01*
X159540465Y-106088205D01*
X159684228Y-105992145D01*
X159843969Y-105925979D01*
X160013549Y-105892247D01*
X160186451Y-105892247D01*
X160356031Y-105925979D01*
G37*
G36*
X134956031Y-103385979D02*
G01*
X135115772Y-103452145D01*
X135259535Y-103548205D01*
X135381795Y-103670465D01*
X135477855Y-103814228D01*
X135544021Y-103973969D01*
X135577753Y-104143549D01*
X135577753Y-104316451D01*
X135544021Y-104486031D01*
X135477855Y-104645772D01*
X135381795Y-104789535D01*
X135259535Y-104911795D01*
X135115772Y-105007855D01*
X134956031Y-105074021D01*
X134786451Y-105107753D01*
X134613549Y-105107753D01*
X134443969Y-105074021D01*
X134284228Y-105007855D01*
X134140465Y-104911795D01*
X134018205Y-104789535D01*
X133922145Y-104645772D01*
X133855979Y-104486031D01*
X133822247Y-104316451D01*
X133822247Y-104143549D01*
X133855979Y-103973969D01*
X133922145Y-103814228D01*
X134018205Y-103670465D01*
X134140465Y-103548205D01*
X134284228Y-103452145D01*
X134443969Y-103385979D01*
X134613549Y-103352247D01*
X134786451Y-103352247D01*
X134956031Y-103385979D01*
G37*
G36*
X160356031Y-103385979D02*
G01*
X160515772Y-103452145D01*
X160659535Y-103548205D01*
X160781795Y-103670465D01*
X160877855Y-103814228D01*
X160944021Y-103973969D01*
X160977753Y-104143549D01*
X160977753Y-104316451D01*
X160944021Y-104486031D01*
X160877855Y-104645772D01*
X160781795Y-104789535D01*
X160659535Y-104911795D01*
X160515772Y-105007855D01*
X160356031Y-105074021D01*
X160186451Y-105107753D01*
X160013549Y-105107753D01*
X159843969Y-105074021D01*
X159684228Y-105007855D01*
X159540465Y-104911795D01*
X159418205Y-104789535D01*
X159322145Y-104645772D01*
X159255979Y-104486031D01*
X159222247Y-104316451D01*
X159222247Y-104143549D01*
X159255979Y-103973969D01*
X159322145Y-103814228D01*
X159418205Y-103670465D01*
X159540465Y-103548205D01*
X159684228Y-103452145D01*
X159843969Y-103385979D01*
X160013549Y-103352247D01*
X160186451Y-103352247D01*
X160356031Y-103385979D01*
G37*
G36*
X88543116Y-102849575D02*
G01*
X88725770Y-102885907D01*
X88897827Y-102957175D01*
X89052674Y-103060640D01*
X89184360Y-103192326D01*
X89287825Y-103347173D01*
X89359093Y-103519230D01*
X89395425Y-103701884D01*
X89395425Y-103888116D01*
X89359093Y-104070770D01*
X89287825Y-104242827D01*
X89184360Y-104397674D01*
X89052674Y-104529360D01*
X88897827Y-104632825D01*
X88725770Y-104704093D01*
X88543116Y-104740425D01*
X88450000Y-104745000D01*
X88448522Y-104745000D01*
X87151478Y-104745000D01*
X87150000Y-104745000D01*
X87056884Y-104740425D01*
X86874230Y-104704093D01*
X86702173Y-104632825D01*
X86547326Y-104529360D01*
X86415640Y-104397674D01*
X86312175Y-104242827D01*
X86240907Y-104070770D01*
X86204575Y-103888116D01*
X86204575Y-103701884D01*
X86240907Y-103519230D01*
X86312175Y-103347173D01*
X86415640Y-103192326D01*
X86547326Y-103060640D01*
X86702173Y-102957175D01*
X86874230Y-102885907D01*
X87056884Y-102849575D01*
X87150000Y-102845000D01*
X88450000Y-102845000D01*
X88543116Y-102849575D01*
G37*
G36*
X101043116Y-102849575D02*
G01*
X101225770Y-102885907D01*
X101397827Y-102957175D01*
X101552674Y-103060640D01*
X101684360Y-103192326D01*
X101787825Y-103347173D01*
X101859093Y-103519230D01*
X101895425Y-103701884D01*
X101895425Y-103888116D01*
X101859093Y-104070770D01*
X101787825Y-104242827D01*
X101684360Y-104397674D01*
X101552674Y-104529360D01*
X101397827Y-104632825D01*
X101225770Y-104704093D01*
X101043116Y-104740425D01*
X100950000Y-104745000D01*
X100948522Y-104745000D01*
X99651478Y-104745000D01*
X99650000Y-104745000D01*
X99556884Y-104740425D01*
X99374230Y-104704093D01*
X99202173Y-104632825D01*
X99047326Y-104529360D01*
X98915640Y-104397674D01*
X98812175Y-104242827D01*
X98740907Y-104070770D01*
X98704575Y-103888116D01*
X98704575Y-103701884D01*
X98740907Y-103519230D01*
X98812175Y-103347173D01*
X98915640Y-103192326D01*
X99047326Y-103060640D01*
X99202173Y-102957175D01*
X99374230Y-102885907D01*
X99556884Y-102849575D01*
X99650000Y-102845000D01*
X100950000Y-102845000D01*
X101043116Y-102849575D01*
G37*
G36*
X174433116Y-100674575D02*
G01*
X174615770Y-100710907D01*
X174787827Y-100782175D01*
X174942674Y-100885640D01*
X175074360Y-101017326D01*
X175177825Y-101172173D01*
X175249093Y-101344230D01*
X175285425Y-101526884D01*
X175285425Y-101713116D01*
X175249093Y-101895770D01*
X175177825Y-102067827D01*
X175074360Y-102222674D01*
X174942674Y-102354360D01*
X174787827Y-102457825D01*
X174615770Y-102529093D01*
X174433116Y-102565425D01*
X174340000Y-102570000D01*
X174338522Y-102570000D01*
X173041478Y-102570000D01*
X173040000Y-102570000D01*
X172946884Y-102565425D01*
X172764230Y-102529093D01*
X172592173Y-102457825D01*
X172437326Y-102354360D01*
X172305640Y-102222674D01*
X172202175Y-102067827D01*
X172130907Y-101895770D01*
X172094575Y-101713116D01*
X172094575Y-101526884D01*
X172130907Y-101344230D01*
X172202175Y-101172173D01*
X172305640Y-101017326D01*
X172437326Y-100885640D01*
X172592173Y-100782175D01*
X172764230Y-100710907D01*
X172946884Y-100674575D01*
X173040000Y-100670000D01*
X174340000Y-100670000D01*
X174433116Y-100674575D01*
G37*
G36*
X186933116Y-100674575D02*
G01*
X187115770Y-100710907D01*
X187287827Y-100782175D01*
X187442674Y-100885640D01*
X187574360Y-101017326D01*
X187677825Y-101172173D01*
X187749093Y-101344230D01*
X187785425Y-101526884D01*
X187785425Y-101713116D01*
X187749093Y-101895770D01*
X187677825Y-102067827D01*
X187574360Y-102222674D01*
X187442674Y-102354360D01*
X187287827Y-102457825D01*
X187115770Y-102529093D01*
X186933116Y-102565425D01*
X186840000Y-102570000D01*
X186838522Y-102570000D01*
X185541478Y-102570000D01*
X185540000Y-102570000D01*
X185446884Y-102565425D01*
X185264230Y-102529093D01*
X185092173Y-102457825D01*
X184937326Y-102354360D01*
X184805640Y-102222674D01*
X184702175Y-102067827D01*
X184630907Y-101895770D01*
X184594575Y-101713116D01*
X184594575Y-101526884D01*
X184630907Y-101344230D01*
X184702175Y-101172173D01*
X184805640Y-101017326D01*
X184937326Y-100885640D01*
X185092173Y-100782175D01*
X185264230Y-100710907D01*
X185446884Y-100674575D01*
X185540000Y-100670000D01*
X186840000Y-100670000D01*
X186933116Y-100674575D01*
G37*
G36*
X192683116Y-100674575D02*
G01*
X192865770Y-100710907D01*
X193037827Y-100782175D01*
X193192674Y-100885640D01*
X193324360Y-101017326D01*
X193427825Y-101172173D01*
X193499093Y-101344230D01*
X193535425Y-101526884D01*
X193535425Y-101713116D01*
X193499093Y-101895770D01*
X193427825Y-102067827D01*
X193324360Y-102222674D01*
X193192674Y-102354360D01*
X193037827Y-102457825D01*
X192865770Y-102529093D01*
X192683116Y-102565425D01*
X192590000Y-102570000D01*
X192588522Y-102570000D01*
X191291478Y-102570000D01*
X191290000Y-102570000D01*
X191196884Y-102565425D01*
X191014230Y-102529093D01*
X190842173Y-102457825D01*
X190687326Y-102354360D01*
X190555640Y-102222674D01*
X190452175Y-102067827D01*
X190380907Y-101895770D01*
X190344575Y-101713116D01*
X190344575Y-101526884D01*
X190380907Y-101344230D01*
X190452175Y-101172173D01*
X190555640Y-101017326D01*
X190687326Y-100885640D01*
X190842173Y-100782175D01*
X191014230Y-100710907D01*
X191196884Y-100674575D01*
X191290000Y-100670000D01*
X192590000Y-100670000D01*
X192683116Y-100674575D01*
G37*
G36*
X205183116Y-100674575D02*
G01*
X205365770Y-100710907D01*
X205537827Y-100782175D01*
X205692674Y-100885640D01*
X205824360Y-101017326D01*
X205927825Y-101172173D01*
X205999093Y-101344230D01*
X206035425Y-101526884D01*
X206035425Y-101713116D01*
X205999093Y-101895770D01*
X205927825Y-102067827D01*
X205824360Y-102222674D01*
X205692674Y-102354360D01*
X205537827Y-102457825D01*
X205365770Y-102529093D01*
X205183116Y-102565425D01*
X205090000Y-102570000D01*
X205088522Y-102570000D01*
X203791478Y-102570000D01*
X203790000Y-102570000D01*
X203696884Y-102565425D01*
X203514230Y-102529093D01*
X203342173Y-102457825D01*
X203187326Y-102354360D01*
X203055640Y-102222674D01*
X202952175Y-102067827D01*
X202880907Y-101895770D01*
X202844575Y-101713116D01*
X202844575Y-101526884D01*
X202880907Y-101344230D01*
X202952175Y-101172173D01*
X203055640Y-101017326D01*
X203187326Y-100885640D01*
X203342173Y-100782175D01*
X203514230Y-100710907D01*
X203696884Y-100674575D01*
X203790000Y-100670000D01*
X205090000Y-100670000D01*
X205183116Y-100674575D01*
G37*
G36*
X210743116Y-100674575D02*
G01*
X210925770Y-100710907D01*
X211097827Y-100782175D01*
X211252674Y-100885640D01*
X211384360Y-101017326D01*
X211487825Y-101172173D01*
X211559093Y-101344230D01*
X211595425Y-101526884D01*
X211595425Y-101713116D01*
X211559093Y-101895770D01*
X211487825Y-102067827D01*
X211384360Y-102222674D01*
X211252674Y-102354360D01*
X211097827Y-102457825D01*
X210925770Y-102529093D01*
X210743116Y-102565425D01*
X210650000Y-102570000D01*
X210648522Y-102570000D01*
X209351478Y-102570000D01*
X209350000Y-102570000D01*
X209256884Y-102565425D01*
X209074230Y-102529093D01*
X208902173Y-102457825D01*
X208747326Y-102354360D01*
X208615640Y-102222674D01*
X208512175Y-102067827D01*
X208440907Y-101895770D01*
X208404575Y-101713116D01*
X208404575Y-101526884D01*
X208440907Y-101344230D01*
X208512175Y-101172173D01*
X208615640Y-101017326D01*
X208747326Y-100885640D01*
X208902173Y-100782175D01*
X209074230Y-100710907D01*
X209256884Y-100674575D01*
X209350000Y-100670000D01*
X210650000Y-100670000D01*
X210743116Y-100674575D01*
G37*
G36*
X223243116Y-100674575D02*
G01*
X223425770Y-100710907D01*
X223597827Y-100782175D01*
X223752674Y-100885640D01*
X223884360Y-101017326D01*
X223987825Y-101172173D01*
X224059093Y-101344230D01*
X224095425Y-101526884D01*
X224095425Y-101713116D01*
X224059093Y-101895770D01*
X223987825Y-102067827D01*
X223884360Y-102222674D01*
X223752674Y-102354360D01*
X223597827Y-102457825D01*
X223425770Y-102529093D01*
X223243116Y-102565425D01*
X223150000Y-102570000D01*
X223148522Y-102570000D01*
X221851478Y-102570000D01*
X221850000Y-102570000D01*
X221756884Y-102565425D01*
X221574230Y-102529093D01*
X221402173Y-102457825D01*
X221247326Y-102354360D01*
X221115640Y-102222674D01*
X221012175Y-102067827D01*
X220940907Y-101895770D01*
X220904575Y-101713116D01*
X220904575Y-101526884D01*
X220940907Y-101344230D01*
X221012175Y-101172173D01*
X221115640Y-101017326D01*
X221247326Y-100885640D01*
X221402173Y-100782175D01*
X221574230Y-100710907D01*
X221756884Y-100674575D01*
X221850000Y-100670000D01*
X223150000Y-100670000D01*
X223243116Y-100674575D01*
G37*
G36*
X134956031Y-100845979D02*
G01*
X135115772Y-100912145D01*
X135259535Y-101008205D01*
X135381795Y-101130465D01*
X135477855Y-101274228D01*
X135544021Y-101433969D01*
X135577753Y-101603549D01*
X135577753Y-101776451D01*
X135544021Y-101946031D01*
X135477855Y-102105772D01*
X135381795Y-102249535D01*
X135259535Y-102371795D01*
X135115772Y-102467855D01*
X134956031Y-102534021D01*
X134786451Y-102567753D01*
X134613549Y-102567753D01*
X134443969Y-102534021D01*
X134284228Y-102467855D01*
X134140465Y-102371795D01*
X134018205Y-102249535D01*
X133922145Y-102105772D01*
X133855979Y-101946031D01*
X133822247Y-101776451D01*
X133822247Y-101603549D01*
X133855979Y-101433969D01*
X133922145Y-101274228D01*
X134018205Y-101130465D01*
X134140465Y-101008205D01*
X134284228Y-100912145D01*
X134443969Y-100845979D01*
X134613549Y-100812247D01*
X134786451Y-100812247D01*
X134956031Y-100845979D01*
G37*
G36*
X160356031Y-100845979D02*
G01*
X160515772Y-100912145D01*
X160659535Y-101008205D01*
X160781795Y-101130465D01*
X160877855Y-101274228D01*
X160944021Y-101433969D01*
X160977753Y-101603549D01*
X160977753Y-101776451D01*
X160944021Y-101946031D01*
X160877855Y-102105772D01*
X160781795Y-102249535D01*
X160659535Y-102371795D01*
X160515772Y-102467855D01*
X160356031Y-102534021D01*
X160186451Y-102567753D01*
X160013549Y-102567753D01*
X159843969Y-102534021D01*
X159684228Y-102467855D01*
X159540465Y-102371795D01*
X159418205Y-102249535D01*
X159322145Y-102105772D01*
X159255979Y-101946031D01*
X159222247Y-101776451D01*
X159222247Y-101603549D01*
X159255979Y-101433969D01*
X159322145Y-101274228D01*
X159418205Y-101130465D01*
X159540465Y-101008205D01*
X159684228Y-100912145D01*
X159843969Y-100845979D01*
X160013549Y-100812247D01*
X160186451Y-100812247D01*
X160356031Y-100845979D01*
G37*
G36*
X134956031Y-98305979D02*
G01*
X135115772Y-98372145D01*
X135259535Y-98468205D01*
X135381795Y-98590465D01*
X135477855Y-98734228D01*
X135544021Y-98893969D01*
X135577753Y-99063549D01*
X135577753Y-99236451D01*
X135544021Y-99406031D01*
X135477855Y-99565772D01*
X135381795Y-99709535D01*
X135259535Y-99831795D01*
X135115772Y-99927855D01*
X134956031Y-99994021D01*
X134786451Y-100027753D01*
X134613549Y-100027753D01*
X134443969Y-99994021D01*
X134284228Y-99927855D01*
X134140465Y-99831795D01*
X134018205Y-99709535D01*
X133922145Y-99565772D01*
X133855979Y-99406031D01*
X133822247Y-99236451D01*
X133822247Y-99063549D01*
X133855979Y-98893969D01*
X133922145Y-98734228D01*
X134018205Y-98590465D01*
X134140465Y-98468205D01*
X134284228Y-98372145D01*
X134443969Y-98305979D01*
X134613549Y-98272247D01*
X134786451Y-98272247D01*
X134956031Y-98305979D01*
G37*
G36*
X160356031Y-98305979D02*
G01*
X160515772Y-98372145D01*
X160659535Y-98468205D01*
X160781795Y-98590465D01*
X160877855Y-98734228D01*
X160944021Y-98893969D01*
X160977753Y-99063549D01*
X160977753Y-99236451D01*
X160944021Y-99406031D01*
X160877855Y-99565772D01*
X160781795Y-99709535D01*
X160659535Y-99831795D01*
X160515772Y-99927855D01*
X160356031Y-99994021D01*
X160186451Y-100027753D01*
X160013549Y-100027753D01*
X159843969Y-99994021D01*
X159684228Y-99927855D01*
X159540465Y-99831795D01*
X159418205Y-99709535D01*
X159322145Y-99565772D01*
X159255979Y-99406031D01*
X159222247Y-99236451D01*
X159222247Y-99063549D01*
X159255979Y-98893969D01*
X159322145Y-98734228D01*
X159418205Y-98590465D01*
X159540465Y-98468205D01*
X159684228Y-98372145D01*
X159843969Y-98305979D01*
X160013549Y-98272247D01*
X160186451Y-98272247D01*
X160356031Y-98305979D01*
G37*
G36*
X174433116Y-95674575D02*
G01*
X174615770Y-95710907D01*
X174787827Y-95782175D01*
X174942674Y-95885640D01*
X175074360Y-96017326D01*
X175177825Y-96172173D01*
X175249093Y-96344230D01*
X175285425Y-96526884D01*
X175285425Y-96713116D01*
X175249093Y-96895770D01*
X175177825Y-97067827D01*
X175074360Y-97222674D01*
X174942674Y-97354360D01*
X174787827Y-97457825D01*
X174615770Y-97529093D01*
X174433116Y-97565425D01*
X174340000Y-97570000D01*
X174338522Y-97570000D01*
X173041478Y-97570000D01*
X173040000Y-97570000D01*
X172946884Y-97565425D01*
X172764230Y-97529093D01*
X172592173Y-97457825D01*
X172437326Y-97354360D01*
X172305640Y-97222674D01*
X172202175Y-97067827D01*
X172130907Y-96895770D01*
X172094575Y-96713116D01*
X172094575Y-96526884D01*
X172130907Y-96344230D01*
X172202175Y-96172173D01*
X172305640Y-96017326D01*
X172437326Y-95885640D01*
X172592173Y-95782175D01*
X172764230Y-95710907D01*
X172946884Y-95674575D01*
X173040000Y-95670000D01*
X174340000Y-95670000D01*
X174433116Y-95674575D01*
G37*
G36*
X186933116Y-95674575D02*
G01*
X187115770Y-95710907D01*
X187287827Y-95782175D01*
X187442674Y-95885640D01*
X187574360Y-96017326D01*
X187677825Y-96172173D01*
X187749093Y-96344230D01*
X187785425Y-96526884D01*
X187785425Y-96713116D01*
X187749093Y-96895770D01*
X187677825Y-97067827D01*
X187574360Y-97222674D01*
X187442674Y-97354360D01*
X187287827Y-97457825D01*
X187115770Y-97529093D01*
X186933116Y-97565425D01*
X186840000Y-97570000D01*
X186838522Y-97570000D01*
X185541478Y-97570000D01*
X185540000Y-97570000D01*
X185446884Y-97565425D01*
X185264230Y-97529093D01*
X185092173Y-97457825D01*
X184937326Y-97354360D01*
X184805640Y-97222674D01*
X184702175Y-97067827D01*
X184630907Y-96895770D01*
X184594575Y-96713116D01*
X184594575Y-96526884D01*
X184630907Y-96344230D01*
X184702175Y-96172173D01*
X184805640Y-96017326D01*
X184937326Y-95885640D01*
X185092173Y-95782175D01*
X185264230Y-95710907D01*
X185446884Y-95674575D01*
X185540000Y-95670000D01*
X186840000Y-95670000D01*
X186933116Y-95674575D01*
G37*
G36*
X192683116Y-95674575D02*
G01*
X192865770Y-95710907D01*
X193037827Y-95782175D01*
X193192674Y-95885640D01*
X193324360Y-96017326D01*
X193427825Y-96172173D01*
X193499093Y-96344230D01*
X193535425Y-96526884D01*
X193535425Y-96713116D01*
X193499093Y-96895770D01*
X193427825Y-97067827D01*
X193324360Y-97222674D01*
X193192674Y-97354360D01*
X193037827Y-97457825D01*
X192865770Y-97529093D01*
X192683116Y-97565425D01*
X192590000Y-97570000D01*
X192588522Y-97570000D01*
X191291478Y-97570000D01*
X191290000Y-97570000D01*
X191196884Y-97565425D01*
X191014230Y-97529093D01*
X190842173Y-97457825D01*
X190687326Y-97354360D01*
X190555640Y-97222674D01*
X190452175Y-97067827D01*
X190380907Y-96895770D01*
X190344575Y-96713116D01*
X190344575Y-96526884D01*
X190380907Y-96344230D01*
X190452175Y-96172173D01*
X190555640Y-96017326D01*
X190687326Y-95885640D01*
X190842173Y-95782175D01*
X191014230Y-95710907D01*
X191196884Y-95674575D01*
X191290000Y-95670000D01*
X192590000Y-95670000D01*
X192683116Y-95674575D01*
G37*
G36*
X205183116Y-95674575D02*
G01*
X205365770Y-95710907D01*
X205537827Y-95782175D01*
X205692674Y-95885640D01*
X205824360Y-96017326D01*
X205927825Y-96172173D01*
X205999093Y-96344230D01*
X206035425Y-96526884D01*
X206035425Y-96713116D01*
X205999093Y-96895770D01*
X205927825Y-97067827D01*
X205824360Y-97222674D01*
X205692674Y-97354360D01*
X205537827Y-97457825D01*
X205365770Y-97529093D01*
X205183116Y-97565425D01*
X205090000Y-97570000D01*
X205088522Y-97570000D01*
X203791478Y-97570000D01*
X203790000Y-97570000D01*
X203696884Y-97565425D01*
X203514230Y-97529093D01*
X203342173Y-97457825D01*
X203187326Y-97354360D01*
X203055640Y-97222674D01*
X202952175Y-97067827D01*
X202880907Y-96895770D01*
X202844575Y-96713116D01*
X202844575Y-96526884D01*
X202880907Y-96344230D01*
X202952175Y-96172173D01*
X203055640Y-96017326D01*
X203187326Y-95885640D01*
X203342173Y-95782175D01*
X203514230Y-95710907D01*
X203696884Y-95674575D01*
X203790000Y-95670000D01*
X205090000Y-95670000D01*
X205183116Y-95674575D01*
G37*
G36*
X210743116Y-95674575D02*
G01*
X210925770Y-95710907D01*
X211097827Y-95782175D01*
X211252674Y-95885640D01*
X211384360Y-96017326D01*
X211487825Y-96172173D01*
X211559093Y-96344230D01*
X211595425Y-96526884D01*
X211595425Y-96713116D01*
X211559093Y-96895770D01*
X211487825Y-97067827D01*
X211384360Y-97222674D01*
X211252674Y-97354360D01*
X211097827Y-97457825D01*
X210925770Y-97529093D01*
X210743116Y-97565425D01*
X210650000Y-97570000D01*
X210648522Y-97570000D01*
X209351478Y-97570000D01*
X209350000Y-97570000D01*
X209256884Y-97565425D01*
X209074230Y-97529093D01*
X208902173Y-97457825D01*
X208747326Y-97354360D01*
X208615640Y-97222674D01*
X208512175Y-97067827D01*
X208440907Y-96895770D01*
X208404575Y-96713116D01*
X208404575Y-96526884D01*
X208440907Y-96344230D01*
X208512175Y-96172173D01*
X208615640Y-96017326D01*
X208747326Y-95885640D01*
X208902173Y-95782175D01*
X209074230Y-95710907D01*
X209256884Y-95674575D01*
X209350000Y-95670000D01*
X210650000Y-95670000D01*
X210743116Y-95674575D01*
G37*
G36*
X223243116Y-95674575D02*
G01*
X223425770Y-95710907D01*
X223597827Y-95782175D01*
X223752674Y-95885640D01*
X223884360Y-96017326D01*
X223987825Y-96172173D01*
X224059093Y-96344230D01*
X224095425Y-96526884D01*
X224095425Y-96713116D01*
X224059093Y-96895770D01*
X223987825Y-97067827D01*
X223884360Y-97222674D01*
X223752674Y-97354360D01*
X223597827Y-97457825D01*
X223425770Y-97529093D01*
X223243116Y-97565425D01*
X223150000Y-97570000D01*
X223148522Y-97570000D01*
X221851478Y-97570000D01*
X221850000Y-97570000D01*
X221756884Y-97565425D01*
X221574230Y-97529093D01*
X221402173Y-97457825D01*
X221247326Y-97354360D01*
X221115640Y-97222674D01*
X221012175Y-97067827D01*
X220940907Y-96895770D01*
X220904575Y-96713116D01*
X220904575Y-96526884D01*
X220940907Y-96344230D01*
X221012175Y-96172173D01*
X221115640Y-96017326D01*
X221247326Y-95885640D01*
X221402173Y-95782175D01*
X221574230Y-95710907D01*
X221756884Y-95674575D01*
X221850000Y-95670000D01*
X223150000Y-95670000D01*
X223243116Y-95674575D01*
G37*
G36*
X134956031Y-95765979D02*
G01*
X135115772Y-95832145D01*
X135259535Y-95928205D01*
X135381795Y-96050465D01*
X135477855Y-96194228D01*
X135544021Y-96353969D01*
X135577753Y-96523549D01*
X135577753Y-96696451D01*
X135544021Y-96866031D01*
X135477855Y-97025772D01*
X135381795Y-97169535D01*
X135259535Y-97291795D01*
X135115772Y-97387855D01*
X134956031Y-97454021D01*
X134786451Y-97487753D01*
X134613549Y-97487753D01*
X134443969Y-97454021D01*
X134284228Y-97387855D01*
X134140465Y-97291795D01*
X134018205Y-97169535D01*
X133922145Y-97025772D01*
X133855979Y-96866031D01*
X133822247Y-96696451D01*
X133822247Y-96523549D01*
X133855979Y-96353969D01*
X133922145Y-96194228D01*
X134018205Y-96050465D01*
X134140465Y-95928205D01*
X134284228Y-95832145D01*
X134443969Y-95765979D01*
X134613549Y-95732247D01*
X134786451Y-95732247D01*
X134956031Y-95765979D01*
G37*
G36*
X160356031Y-95765979D02*
G01*
X160515772Y-95832145D01*
X160659535Y-95928205D01*
X160781795Y-96050465D01*
X160877855Y-96194228D01*
X160944021Y-96353969D01*
X160977753Y-96523549D01*
X160977753Y-96696451D01*
X160944021Y-96866031D01*
X160877855Y-97025772D01*
X160781795Y-97169535D01*
X160659535Y-97291795D01*
X160515772Y-97387855D01*
X160356031Y-97454021D01*
X160186451Y-97487753D01*
X160013549Y-97487753D01*
X159843969Y-97454021D01*
X159684228Y-97387855D01*
X159540465Y-97291795D01*
X159418205Y-97169535D01*
X159322145Y-97025772D01*
X159255979Y-96866031D01*
X159222247Y-96696451D01*
X159222247Y-96523549D01*
X159255979Y-96353969D01*
X159322145Y-96194228D01*
X159418205Y-96050465D01*
X159540465Y-95928205D01*
X159684228Y-95832145D01*
X159843969Y-95765979D01*
X160013549Y-95732247D01*
X160186451Y-95732247D01*
X160356031Y-95765979D01*
G37*
G36*
X107065151Y-93477301D02*
G01*
X107266623Y-93542763D01*
X107455373Y-93638936D01*
X107626755Y-93763452D01*
X107776548Y-93913245D01*
X107901064Y-94084627D01*
X107997237Y-94273377D01*
X108062699Y-94474849D01*
X108095838Y-94684080D01*
X108095838Y-94895920D01*
X108062699Y-95105151D01*
X107997237Y-95306623D01*
X107901064Y-95495373D01*
X107776548Y-95666755D01*
X107626755Y-95816548D01*
X107455373Y-95941064D01*
X107266623Y-96037237D01*
X107065151Y-96102699D01*
X106855920Y-96135838D01*
X106644080Y-96135838D01*
X106434849Y-96102699D01*
X106233377Y-96037237D01*
X106044627Y-95941064D01*
X105873245Y-95816548D01*
X105723452Y-95666755D01*
X105598936Y-95495373D01*
X105502763Y-95306623D01*
X105437301Y-95105151D01*
X105404162Y-94895920D01*
X105404162Y-94684080D01*
X105437301Y-94474849D01*
X105502763Y-94273377D01*
X105598936Y-94084627D01*
X105723452Y-93913245D01*
X105873245Y-93763452D01*
X106044627Y-93638936D01*
X106233377Y-93542763D01*
X106434849Y-93477301D01*
X106644080Y-93444162D01*
X106855920Y-93444162D01*
X107065151Y-93477301D01*
G37*
G36*
X120165151Y-93477301D02*
G01*
X120366623Y-93542763D01*
X120555373Y-93638936D01*
X120726755Y-93763452D01*
X120876548Y-93913245D01*
X121001064Y-94084627D01*
X121097237Y-94273377D01*
X121162699Y-94474849D01*
X121195838Y-94684080D01*
X121195838Y-94895920D01*
X121162699Y-95105151D01*
X121097237Y-95306623D01*
X121001064Y-95495373D01*
X120876548Y-95666755D01*
X120726755Y-95816548D01*
X120555373Y-95941064D01*
X120366623Y-96037237D01*
X120165151Y-96102699D01*
X119955920Y-96135838D01*
X119744080Y-96135838D01*
X119534849Y-96102699D01*
X119333377Y-96037237D01*
X119144627Y-95941064D01*
X118973245Y-95816548D01*
X118823452Y-95666755D01*
X118698936Y-95495373D01*
X118602763Y-95306623D01*
X118537301Y-95105151D01*
X118504162Y-94895920D01*
X118504162Y-94684080D01*
X118537301Y-94474849D01*
X118602763Y-94273377D01*
X118698936Y-94084627D01*
X118823452Y-93913245D01*
X118973245Y-93763452D01*
X119144627Y-93638936D01*
X119333377Y-93542763D01*
X119534849Y-93477301D01*
X119744080Y-93444162D01*
X119955920Y-93444162D01*
X120165151Y-93477301D01*
G37*
G36*
X134956031Y-93225979D02*
G01*
X135115772Y-93292145D01*
X135259535Y-93388205D01*
X135381795Y-93510465D01*
X135477855Y-93654228D01*
X135544021Y-93813969D01*
X135577753Y-93983549D01*
X135577753Y-94156451D01*
X135544021Y-94326031D01*
X135477855Y-94485772D01*
X135381795Y-94629535D01*
X135259535Y-94751795D01*
X135115772Y-94847855D01*
X134956031Y-94914021D01*
X134786451Y-94947753D01*
X134613549Y-94947753D01*
X134443969Y-94914021D01*
X134284228Y-94847855D01*
X134140465Y-94751795D01*
X134018205Y-94629535D01*
X133922145Y-94485772D01*
X133855979Y-94326031D01*
X133822247Y-94156451D01*
X133822247Y-93983549D01*
X133855979Y-93813969D01*
X133922145Y-93654228D01*
X134018205Y-93510465D01*
X134140465Y-93388205D01*
X134284228Y-93292145D01*
X134443969Y-93225979D01*
X134613549Y-93192247D01*
X134786451Y-93192247D01*
X134956031Y-93225979D01*
G37*
G36*
X160356031Y-93225979D02*
G01*
X160515772Y-93292145D01*
X160659535Y-93388205D01*
X160781795Y-93510465D01*
X160877855Y-93654228D01*
X160944021Y-93813969D01*
X160977753Y-93983549D01*
X160977753Y-94156451D01*
X160944021Y-94326031D01*
X160877855Y-94485772D01*
X160781795Y-94629535D01*
X160659535Y-94751795D01*
X160515772Y-94847855D01*
X160356031Y-94914021D01*
X160186451Y-94947753D01*
X160013549Y-94947753D01*
X159843969Y-94914021D01*
X159684228Y-94847855D01*
X159540465Y-94751795D01*
X159418205Y-94629535D01*
X159322145Y-94485772D01*
X159255979Y-94326031D01*
X159222247Y-94156451D01*
X159222247Y-93983549D01*
X159255979Y-93813969D01*
X159322145Y-93654228D01*
X159418205Y-93510465D01*
X159540465Y-93388205D01*
X159684228Y-93292145D01*
X159843969Y-93225979D01*
X160013549Y-93192247D01*
X160186451Y-93192247D01*
X160356031Y-93225979D01*
G37*
G36*
X115465151Y-92277301D02*
G01*
X115666623Y-92342763D01*
X115855373Y-92438936D01*
X116026755Y-92563452D01*
X116176548Y-92713245D01*
X116301064Y-92884627D01*
X116397237Y-93073377D01*
X116462699Y-93274849D01*
X116495838Y-93484080D01*
X116495838Y-93695920D01*
X116462699Y-93905151D01*
X116397237Y-94106623D01*
X116301064Y-94295373D01*
X116176548Y-94466755D01*
X116026755Y-94616548D01*
X115855373Y-94741064D01*
X115666623Y-94837237D01*
X115465151Y-94902699D01*
X115255920Y-94935838D01*
X115044080Y-94935838D01*
X114834849Y-94902699D01*
X114633377Y-94837237D01*
X114444627Y-94741064D01*
X114273245Y-94616548D01*
X114123452Y-94466755D01*
X113998936Y-94295373D01*
X113902763Y-94106623D01*
X113837301Y-93905151D01*
X113804162Y-93695920D01*
X113804162Y-93484080D01*
X113837301Y-93274849D01*
X113902763Y-93073377D01*
X113998936Y-92884627D01*
X114123452Y-92713245D01*
X114273245Y-92563452D01*
X114444627Y-92438936D01*
X114633377Y-92342763D01*
X114834849Y-92277301D01*
X115044080Y-92244162D01*
X115255920Y-92244162D01*
X115465151Y-92277301D01*
G37*
G36*
X128565151Y-92277301D02*
G01*
X128766623Y-92342763D01*
X128955373Y-92438936D01*
X129126755Y-92563452D01*
X129276548Y-92713245D01*
X129401064Y-92884627D01*
X129497237Y-93073377D01*
X129562699Y-93274849D01*
X129595838Y-93484080D01*
X129595838Y-93695920D01*
X129562699Y-93905151D01*
X129497237Y-94106623D01*
X129401064Y-94295373D01*
X129276548Y-94466755D01*
X129126755Y-94616548D01*
X128955373Y-94741064D01*
X128766623Y-94837237D01*
X128565151Y-94902699D01*
X128355920Y-94935838D01*
X128144080Y-94935838D01*
X127934849Y-94902699D01*
X127733377Y-94837237D01*
X127544627Y-94741064D01*
X127373245Y-94616548D01*
X127223452Y-94466755D01*
X127098936Y-94295373D01*
X127002763Y-94106623D01*
X126937301Y-93905151D01*
X126904162Y-93695920D01*
X126904162Y-93484080D01*
X126937301Y-93274849D01*
X127002763Y-93073377D01*
X127098936Y-92884627D01*
X127223452Y-92713245D01*
X127373245Y-92563452D01*
X127544627Y-92438936D01*
X127733377Y-92342763D01*
X127934849Y-92277301D01*
X128144080Y-92244162D01*
X128355920Y-92244162D01*
X128565151Y-92277301D01*
G37*
G36*
X134956031Y-90685979D02*
G01*
X135115772Y-90752145D01*
X135259535Y-90848205D01*
X135381795Y-90970465D01*
X135477855Y-91114228D01*
X135544021Y-91273969D01*
X135577753Y-91443549D01*
X135577753Y-91616451D01*
X135544021Y-91786031D01*
X135477855Y-91945772D01*
X135381795Y-92089535D01*
X135259535Y-92211795D01*
X135115772Y-92307855D01*
X134956031Y-92374021D01*
X134786451Y-92407753D01*
X134613549Y-92407753D01*
X134443969Y-92374021D01*
X134284228Y-92307855D01*
X134140465Y-92211795D01*
X134018205Y-92089535D01*
X133922145Y-91945772D01*
X133855979Y-91786031D01*
X133822247Y-91616451D01*
X133822247Y-91443549D01*
X133855979Y-91273969D01*
X133922145Y-91114228D01*
X134018205Y-90970465D01*
X134140465Y-90848205D01*
X134284228Y-90752145D01*
X134443969Y-90685979D01*
X134613549Y-90652247D01*
X134786451Y-90652247D01*
X134956031Y-90685979D01*
G37*
G36*
X160356031Y-90685979D02*
G01*
X160515772Y-90752145D01*
X160659535Y-90848205D01*
X160781795Y-90970465D01*
X160877855Y-91114228D01*
X160944021Y-91273969D01*
X160977753Y-91443549D01*
X160977753Y-91616451D01*
X160944021Y-91786031D01*
X160877855Y-91945772D01*
X160781795Y-92089535D01*
X160659535Y-92211795D01*
X160515772Y-92307855D01*
X160356031Y-92374021D01*
X160186451Y-92407753D01*
X160013549Y-92407753D01*
X159843969Y-92374021D01*
X159684228Y-92307855D01*
X159540465Y-92211795D01*
X159418205Y-92089535D01*
X159322145Y-91945772D01*
X159255979Y-91786031D01*
X159222247Y-91616451D01*
X159222247Y-91443549D01*
X159255979Y-91273969D01*
X159322145Y-91114228D01*
X159418205Y-90970465D01*
X159540465Y-90848205D01*
X159684228Y-90752145D01*
X159843969Y-90685979D01*
X160013549Y-90652247D01*
X160186451Y-90652247D01*
X160356031Y-90685979D01*
G37*
G36*
X109453999Y-88852677D02*
G01*
X109612472Y-88918319D01*
X109755094Y-89013616D01*
X109876384Y-89134906D01*
X109971681Y-89277528D01*
X110037323Y-89436001D01*
X110070787Y-89604235D01*
X110070787Y-89775765D01*
X110037323Y-89943999D01*
X109971681Y-90102472D01*
X109876384Y-90245094D01*
X109755094Y-90366384D01*
X109612472Y-90461681D01*
X109453999Y-90527323D01*
X109285765Y-90560787D01*
X109114235Y-90560787D01*
X108946001Y-90527323D01*
X108787528Y-90461681D01*
X108644906Y-90366384D01*
X108523616Y-90245094D01*
X108428319Y-90102472D01*
X108362677Y-89943999D01*
X108329213Y-89775765D01*
X108329213Y-89604235D01*
X108362677Y-89436001D01*
X108428319Y-89277528D01*
X108523616Y-89134906D01*
X108644906Y-89013616D01*
X108787528Y-88918319D01*
X108946001Y-88852677D01*
X109114235Y-88819213D01*
X109285765Y-88819213D01*
X109453999Y-88852677D01*
G37*
G36*
X122553999Y-88852677D02*
G01*
X122712472Y-88918319D01*
X122855094Y-89013616D01*
X122976384Y-89134906D01*
X123071681Y-89277528D01*
X123137323Y-89436001D01*
X123170787Y-89604235D01*
X123170787Y-89775765D01*
X123137323Y-89943999D01*
X123071681Y-90102472D01*
X122976384Y-90245094D01*
X122855094Y-90366384D01*
X122712472Y-90461681D01*
X122553999Y-90527323D01*
X122385765Y-90560787D01*
X122214235Y-90560787D01*
X122046001Y-90527323D01*
X121887528Y-90461681D01*
X121744906Y-90366384D01*
X121623616Y-90245094D01*
X121528319Y-90102472D01*
X121462677Y-89943999D01*
X121429213Y-89775765D01*
X121429213Y-89604235D01*
X121462677Y-89436001D01*
X121528319Y-89277528D01*
X121623616Y-89134906D01*
X121744906Y-89013616D01*
X121887528Y-88918319D01*
X122046001Y-88852677D01*
X122214235Y-88819213D01*
X122385765Y-88819213D01*
X122553999Y-88852677D01*
G37*
G36*
X176052228Y-87854448D02*
G01*
X176197117Y-87914463D01*
X176327515Y-88001592D01*
X176438408Y-88112485D01*
X176525537Y-88242883D01*
X176585552Y-88387772D01*
X176616148Y-88541586D01*
X176616148Y-88698414D01*
X176585552Y-88852228D01*
X176525537Y-88997117D01*
X176438408Y-89127515D01*
X176327515Y-89238408D01*
X176197117Y-89325537D01*
X176052228Y-89385552D01*
X175898414Y-89416148D01*
X175741586Y-89416148D01*
X175587772Y-89385552D01*
X175442883Y-89325537D01*
X175312485Y-89238408D01*
X175201592Y-89127515D01*
X175114463Y-88997117D01*
X175054448Y-88852228D01*
X175023852Y-88698414D01*
X175023852Y-88541586D01*
X175054448Y-88387772D01*
X175114463Y-88242883D01*
X175201592Y-88112485D01*
X175312485Y-88001592D01*
X175442883Y-87914463D01*
X175587772Y-87854448D01*
X175741586Y-87823852D01*
X175898414Y-87823852D01*
X176052228Y-87854448D01*
G37*
G36*
X183672228Y-87854448D02*
G01*
X183817117Y-87914463D01*
X183947515Y-88001592D01*
X184058408Y-88112485D01*
X184145537Y-88242883D01*
X184205552Y-88387772D01*
X184236148Y-88541586D01*
X184236148Y-88698414D01*
X184205552Y-88852228D01*
X184145537Y-88997117D01*
X184058408Y-89127515D01*
X183947515Y-89238408D01*
X183817117Y-89325537D01*
X183672228Y-89385552D01*
X183518414Y-89416148D01*
X183361586Y-89416148D01*
X183207772Y-89385552D01*
X183062883Y-89325537D01*
X182932485Y-89238408D01*
X182821592Y-89127515D01*
X182734463Y-88997117D01*
X182674448Y-88852228D01*
X182643852Y-88698414D01*
X182643852Y-88541586D01*
X182674448Y-88387772D01*
X182734463Y-88242883D01*
X182821592Y-88112485D01*
X182932485Y-88001592D01*
X183062883Y-87914463D01*
X183207772Y-87854448D01*
X183361586Y-87823852D01*
X183518414Y-87823852D01*
X183672228Y-87854448D01*
G37*
G36*
X194582228Y-87854448D02*
G01*
X194727117Y-87914463D01*
X194857515Y-88001592D01*
X194968408Y-88112485D01*
X195055537Y-88242883D01*
X195115552Y-88387772D01*
X195146148Y-88541586D01*
X195146148Y-88698414D01*
X195115552Y-88852228D01*
X195055537Y-88997117D01*
X194968408Y-89127515D01*
X194857515Y-89238408D01*
X194727117Y-89325537D01*
X194582228Y-89385552D01*
X194428414Y-89416148D01*
X194271586Y-89416148D01*
X194117772Y-89385552D01*
X193972883Y-89325537D01*
X193842485Y-89238408D01*
X193731592Y-89127515D01*
X193644463Y-88997117D01*
X193584448Y-88852228D01*
X193553852Y-88698414D01*
X193553852Y-88541586D01*
X193584448Y-88387772D01*
X193644463Y-88242883D01*
X193731592Y-88112485D01*
X193842485Y-88001592D01*
X193972883Y-87914463D01*
X194117772Y-87854448D01*
X194271586Y-87823852D01*
X194428414Y-87823852D01*
X194582228Y-87854448D01*
G37*
G36*
X202202228Y-87854448D02*
G01*
X202347117Y-87914463D01*
X202477515Y-88001592D01*
X202588408Y-88112485D01*
X202675537Y-88242883D01*
X202735552Y-88387772D01*
X202766148Y-88541586D01*
X202766148Y-88698414D01*
X202735552Y-88852228D01*
X202675537Y-88997117D01*
X202588408Y-89127515D01*
X202477515Y-89238408D01*
X202347117Y-89325537D01*
X202202228Y-89385552D01*
X202048414Y-89416148D01*
X201891586Y-89416148D01*
X201737772Y-89385552D01*
X201592883Y-89325537D01*
X201462485Y-89238408D01*
X201351592Y-89127515D01*
X201264463Y-88997117D01*
X201204448Y-88852228D01*
X201173852Y-88698414D01*
X201173852Y-88541586D01*
X201204448Y-88387772D01*
X201264463Y-88242883D01*
X201351592Y-88112485D01*
X201462485Y-88001592D01*
X201592883Y-87914463D01*
X201737772Y-87854448D01*
X201891586Y-87823852D01*
X202048414Y-87823852D01*
X202202228Y-87854448D01*
G37*
G36*
X226372228Y-87454448D02*
G01*
X226517117Y-87514463D01*
X226647515Y-87601592D01*
X226758408Y-87712485D01*
X226845537Y-87842883D01*
X226905552Y-87987772D01*
X226936148Y-88141586D01*
X226936148Y-88298414D01*
X226905552Y-88452228D01*
X226845537Y-88597117D01*
X226758408Y-88727515D01*
X226647515Y-88838408D01*
X226517117Y-88925537D01*
X226372228Y-88985552D01*
X226218414Y-89016148D01*
X226061586Y-89016148D01*
X225907772Y-88985552D01*
X225762883Y-88925537D01*
X225632485Y-88838408D01*
X225521592Y-88727515D01*
X225434463Y-88597117D01*
X225374448Y-88452228D01*
X225343852Y-88298414D01*
X225343852Y-88141586D01*
X225374448Y-87987772D01*
X225434463Y-87842883D01*
X225521592Y-87712485D01*
X225632485Y-87601592D01*
X225762883Y-87514463D01*
X225907772Y-87454448D01*
X226061586Y-87423852D01*
X226218414Y-87423852D01*
X226372228Y-87454448D01*
G37*
G36*
X233992228Y-87454448D02*
G01*
X234137117Y-87514463D01*
X234267515Y-87601592D01*
X234378408Y-87712485D01*
X234465537Y-87842883D01*
X234525552Y-87987772D01*
X234556148Y-88141586D01*
X234556148Y-88298414D01*
X234525552Y-88452228D01*
X234465537Y-88597117D01*
X234378408Y-88727515D01*
X234267515Y-88838408D01*
X234137117Y-88925537D01*
X233992228Y-88985552D01*
X233838414Y-89016148D01*
X233681586Y-89016148D01*
X233527772Y-88985552D01*
X233382883Y-88925537D01*
X233252485Y-88838408D01*
X233141592Y-88727515D01*
X233054463Y-88597117D01*
X232994448Y-88452228D01*
X232963852Y-88298414D01*
X232963852Y-88141586D01*
X232994448Y-87987772D01*
X233054463Y-87842883D01*
X233141592Y-87712485D01*
X233252485Y-87601592D01*
X233382883Y-87514463D01*
X233527772Y-87454448D01*
X233681586Y-87423852D01*
X233838414Y-87423852D01*
X233992228Y-87454448D01*
G37*
G36*
X212612228Y-87354448D02*
G01*
X212757117Y-87414463D01*
X212887515Y-87501592D01*
X212998408Y-87612485D01*
X213085537Y-87742883D01*
X213145552Y-87887772D01*
X213176148Y-88041586D01*
X213176148Y-88198414D01*
X213145552Y-88352228D01*
X213085537Y-88497117D01*
X212998408Y-88627515D01*
X212887515Y-88738408D01*
X212757117Y-88825537D01*
X212612228Y-88885552D01*
X212458414Y-88916148D01*
X212301586Y-88916148D01*
X212147772Y-88885552D01*
X212002883Y-88825537D01*
X211872485Y-88738408D01*
X211761592Y-88627515D01*
X211674463Y-88497117D01*
X211614448Y-88352228D01*
X211583852Y-88198414D01*
X211583852Y-88041586D01*
X211614448Y-87887772D01*
X211674463Y-87742883D01*
X211761592Y-87612485D01*
X211872485Y-87501592D01*
X212002883Y-87414463D01*
X212147772Y-87354448D01*
X212301586Y-87323852D01*
X212458414Y-87323852D01*
X212612228Y-87354448D01*
G37*
G36*
X220232228Y-87354448D02*
G01*
X220377117Y-87414463D01*
X220507515Y-87501592D01*
X220618408Y-87612485D01*
X220705537Y-87742883D01*
X220765552Y-87887772D01*
X220796148Y-88041586D01*
X220796148Y-88198414D01*
X220765552Y-88352228D01*
X220705537Y-88497117D01*
X220618408Y-88627515D01*
X220507515Y-88738408D01*
X220377117Y-88825537D01*
X220232228Y-88885552D01*
X220078414Y-88916148D01*
X219921586Y-88916148D01*
X219767772Y-88885552D01*
X219622883Y-88825537D01*
X219492485Y-88738408D01*
X219381592Y-88627515D01*
X219294463Y-88497117D01*
X219234448Y-88352228D01*
X219203852Y-88198414D01*
X219203852Y-88041586D01*
X219234448Y-87887772D01*
X219294463Y-87742883D01*
X219381592Y-87612485D01*
X219492485Y-87501592D01*
X219622883Y-87414463D01*
X219767772Y-87354448D01*
X219921586Y-87323852D01*
X220078414Y-87323852D01*
X220232228Y-87354448D01*
G37*
G36*
X116100000Y-83840000D02*
G01*
X114300000Y-83840000D01*
X114300000Y-82040000D01*
X116100000Y-82040000D01*
X116100000Y-83840000D01*
G37*
G36*
X117961256Y-82078754D02*
G01*
X118124257Y-82146271D01*
X118270954Y-82244291D01*
X118395709Y-82369046D01*
X118493729Y-82515743D01*
X118561246Y-82678744D01*
X118595666Y-82851785D01*
X118595666Y-83028215D01*
X118561246Y-83201256D01*
X118493729Y-83364257D01*
X118395709Y-83510954D01*
X118270954Y-83635709D01*
X118124257Y-83733729D01*
X117961256Y-83801246D01*
X117788215Y-83835666D01*
X117611785Y-83835666D01*
X117438744Y-83801246D01*
X117275743Y-83733729D01*
X117129046Y-83635709D01*
X117004291Y-83510954D01*
X116906271Y-83364257D01*
X116838754Y-83201256D01*
X116804334Y-83028215D01*
X116804334Y-82851785D01*
X116838754Y-82678744D01*
X116906271Y-82515743D01*
X117004291Y-82369046D01*
X117129046Y-82244291D01*
X117275743Y-82146271D01*
X117438744Y-82078754D01*
X117611785Y-82044334D01*
X117788215Y-82044334D01*
X117961256Y-82078754D01*
G37*
G36*
X120461256Y-82078754D02*
G01*
X120624257Y-82146271D01*
X120770954Y-82244291D01*
X120895709Y-82369046D01*
X120993729Y-82515743D01*
X121061246Y-82678744D01*
X121095666Y-82851785D01*
X121095666Y-83028215D01*
X121061246Y-83201256D01*
X120993729Y-83364257D01*
X120895709Y-83510954D01*
X120770954Y-83635709D01*
X120624257Y-83733729D01*
X120461256Y-83801246D01*
X120288215Y-83835666D01*
X120111785Y-83835666D01*
X119938744Y-83801246D01*
X119775743Y-83733729D01*
X119629046Y-83635709D01*
X119504291Y-83510954D01*
X119406271Y-83364257D01*
X119338754Y-83201256D01*
X119304334Y-83028215D01*
X119304334Y-82851785D01*
X119338754Y-82678744D01*
X119406271Y-82515743D01*
X119504291Y-82369046D01*
X119629046Y-82244291D01*
X119775743Y-82146271D01*
X119938744Y-82078754D01*
X120111785Y-82044334D01*
X120288215Y-82044334D01*
X120461256Y-82078754D01*
G37*
G36*
X105982228Y-80774448D02*
G01*
X106127117Y-80834463D01*
X106257515Y-80921592D01*
X106368408Y-81032485D01*
X106455537Y-81162883D01*
X106515552Y-81307772D01*
X106546148Y-81461586D01*
X106546148Y-81618414D01*
X106515552Y-81772228D01*
X106455537Y-81917117D01*
X106368408Y-82047515D01*
X106257515Y-82158408D01*
X106127117Y-82245537D01*
X105982228Y-82305552D01*
X105828414Y-82336148D01*
X105671586Y-82336148D01*
X105517772Y-82305552D01*
X105372883Y-82245537D01*
X105242485Y-82158408D01*
X105131592Y-82047515D01*
X105044463Y-81917117D01*
X104984448Y-81772228D01*
X104953852Y-81618414D01*
X104953852Y-81461586D01*
X104984448Y-81307772D01*
X105044463Y-81162883D01*
X105131592Y-81032485D01*
X105242485Y-80921592D01*
X105372883Y-80834463D01*
X105517772Y-80774448D01*
X105671586Y-80743852D01*
X105828414Y-80743852D01*
X105982228Y-80774448D01*
G37*
G36*
X174433116Y-79674575D02*
G01*
X174615770Y-79710907D01*
X174787827Y-79782175D01*
X174942674Y-79885640D01*
X175074360Y-80017326D01*
X175177825Y-80172173D01*
X175249093Y-80344230D01*
X175285425Y-80526884D01*
X175285425Y-80713116D01*
X175249093Y-80895770D01*
X175177825Y-81067827D01*
X175074360Y-81222674D01*
X174942674Y-81354360D01*
X174787827Y-81457825D01*
X174615770Y-81529093D01*
X174433116Y-81565425D01*
X174340000Y-81570000D01*
X174338522Y-81570000D01*
X173041478Y-81570000D01*
X173040000Y-81570000D01*
X172946884Y-81565425D01*
X172764230Y-81529093D01*
X172592173Y-81457825D01*
X172437326Y-81354360D01*
X172305640Y-81222674D01*
X172202175Y-81067827D01*
X172130907Y-80895770D01*
X172094575Y-80713116D01*
X172094575Y-80526884D01*
X172130907Y-80344230D01*
X172202175Y-80172173D01*
X172305640Y-80017326D01*
X172437326Y-79885640D01*
X172592173Y-79782175D01*
X172764230Y-79710907D01*
X172946884Y-79674575D01*
X173040000Y-79670000D01*
X174340000Y-79670000D01*
X174433116Y-79674575D01*
G37*
G36*
X186933116Y-79674575D02*
G01*
X187115770Y-79710907D01*
X187287827Y-79782175D01*
X187442674Y-79885640D01*
X187574360Y-80017326D01*
X187677825Y-80172173D01*
X187749093Y-80344230D01*
X187785425Y-80526884D01*
X187785425Y-80713116D01*
X187749093Y-80895770D01*
X187677825Y-81067827D01*
X187574360Y-81222674D01*
X187442674Y-81354360D01*
X187287827Y-81457825D01*
X187115770Y-81529093D01*
X186933116Y-81565425D01*
X186840000Y-81570000D01*
X186838522Y-81570000D01*
X185541478Y-81570000D01*
X185540000Y-81570000D01*
X185446884Y-81565425D01*
X185264230Y-81529093D01*
X185092173Y-81457825D01*
X184937326Y-81354360D01*
X184805640Y-81222674D01*
X184702175Y-81067827D01*
X184630907Y-80895770D01*
X184594575Y-80713116D01*
X184594575Y-80526884D01*
X184630907Y-80344230D01*
X184702175Y-80172173D01*
X184805640Y-80017326D01*
X184937326Y-79885640D01*
X185092173Y-79782175D01*
X185264230Y-79710907D01*
X185446884Y-79674575D01*
X185540000Y-79670000D01*
X186840000Y-79670000D01*
X186933116Y-79674575D01*
G37*
G36*
X192683116Y-79674575D02*
G01*
X192865770Y-79710907D01*
X193037827Y-79782175D01*
X193192674Y-79885640D01*
X193324360Y-80017326D01*
X193427825Y-80172173D01*
X193499093Y-80344230D01*
X193535425Y-80526884D01*
X193535425Y-80713116D01*
X193499093Y-80895770D01*
X193427825Y-81067827D01*
X193324360Y-81222674D01*
X193192674Y-81354360D01*
X193037827Y-81457825D01*
X192865770Y-81529093D01*
X192683116Y-81565425D01*
X192590000Y-81570000D01*
X192588522Y-81570000D01*
X191291478Y-81570000D01*
X191290000Y-81570000D01*
X191196884Y-81565425D01*
X191014230Y-81529093D01*
X190842173Y-81457825D01*
X190687326Y-81354360D01*
X190555640Y-81222674D01*
X190452175Y-81067827D01*
X190380907Y-80895770D01*
X190344575Y-80713116D01*
X190344575Y-80526884D01*
X190380907Y-80344230D01*
X190452175Y-80172173D01*
X190555640Y-80017326D01*
X190687326Y-79885640D01*
X190842173Y-79782175D01*
X191014230Y-79710907D01*
X191196884Y-79674575D01*
X191290000Y-79670000D01*
X192590000Y-79670000D01*
X192683116Y-79674575D01*
G37*
G36*
X205183116Y-79674575D02*
G01*
X205365770Y-79710907D01*
X205537827Y-79782175D01*
X205692674Y-79885640D01*
X205824360Y-80017326D01*
X205927825Y-80172173D01*
X205999093Y-80344230D01*
X206035425Y-80526884D01*
X206035425Y-80713116D01*
X205999093Y-80895770D01*
X205927825Y-81067827D01*
X205824360Y-81222674D01*
X205692674Y-81354360D01*
X205537827Y-81457825D01*
X205365770Y-81529093D01*
X205183116Y-81565425D01*
X205090000Y-81570000D01*
X205088522Y-81570000D01*
X203791478Y-81570000D01*
X203790000Y-81570000D01*
X203696884Y-81565425D01*
X203514230Y-81529093D01*
X203342173Y-81457825D01*
X203187326Y-81354360D01*
X203055640Y-81222674D01*
X202952175Y-81067827D01*
X202880907Y-80895770D01*
X202844575Y-80713116D01*
X202844575Y-80526884D01*
X202880907Y-80344230D01*
X202952175Y-80172173D01*
X203055640Y-80017326D01*
X203187326Y-79885640D01*
X203342173Y-79782175D01*
X203514230Y-79710907D01*
X203696884Y-79674575D01*
X203790000Y-79670000D01*
X205090000Y-79670000D01*
X205183116Y-79674575D01*
G37*
G36*
X210743116Y-79674575D02*
G01*
X210925770Y-79710907D01*
X211097827Y-79782175D01*
X211252674Y-79885640D01*
X211384360Y-80017326D01*
X211487825Y-80172173D01*
X211559093Y-80344230D01*
X211595425Y-80526884D01*
X211595425Y-80713116D01*
X211559093Y-80895770D01*
X211487825Y-81067827D01*
X211384360Y-81222674D01*
X211252674Y-81354360D01*
X211097827Y-81457825D01*
X210925770Y-81529093D01*
X210743116Y-81565425D01*
X210650000Y-81570000D01*
X210648522Y-81570000D01*
X209351478Y-81570000D01*
X209350000Y-81570000D01*
X209256884Y-81565425D01*
X209074230Y-81529093D01*
X208902173Y-81457825D01*
X208747326Y-81354360D01*
X208615640Y-81222674D01*
X208512175Y-81067827D01*
X208440907Y-80895770D01*
X208404575Y-80713116D01*
X208404575Y-80526884D01*
X208440907Y-80344230D01*
X208512175Y-80172173D01*
X208615640Y-80017326D01*
X208747326Y-79885640D01*
X208902173Y-79782175D01*
X209074230Y-79710907D01*
X209256884Y-79674575D01*
X209350000Y-79670000D01*
X210650000Y-79670000D01*
X210743116Y-79674575D01*
G37*
G36*
X223243116Y-79674575D02*
G01*
X223425770Y-79710907D01*
X223597827Y-79782175D01*
X223752674Y-79885640D01*
X223884360Y-80017326D01*
X223987825Y-80172173D01*
X224059093Y-80344230D01*
X224095425Y-80526884D01*
X224095425Y-80713116D01*
X224059093Y-80895770D01*
X223987825Y-81067827D01*
X223884360Y-81222674D01*
X223752674Y-81354360D01*
X223597827Y-81457825D01*
X223425770Y-81529093D01*
X223243116Y-81565425D01*
X223150000Y-81570000D01*
X223148522Y-81570000D01*
X221851478Y-81570000D01*
X221850000Y-81570000D01*
X221756884Y-81565425D01*
X221574230Y-81529093D01*
X221402173Y-81457825D01*
X221247326Y-81354360D01*
X221115640Y-81222674D01*
X221012175Y-81067827D01*
X220940907Y-80895770D01*
X220904575Y-80713116D01*
X220904575Y-80526884D01*
X220940907Y-80344230D01*
X221012175Y-80172173D01*
X221115640Y-80017326D01*
X221247326Y-79885640D01*
X221402173Y-79782175D01*
X221574230Y-79710907D01*
X221756884Y-79674575D01*
X221850000Y-79670000D01*
X223150000Y-79670000D01*
X223243116Y-79674575D01*
G37*
G36*
X88756790Y-76830393D02*
G01*
X88920952Y-76883733D01*
X89074748Y-76962096D01*
X89214393Y-77063553D01*
X89336447Y-77185607D01*
X89437904Y-77325252D01*
X89516267Y-77479048D01*
X89569607Y-77643210D01*
X89596609Y-77813695D01*
X89596609Y-77986305D01*
X89569607Y-78156790D01*
X89516267Y-78320952D01*
X89437904Y-78474748D01*
X89336447Y-78614393D01*
X89214393Y-78736447D01*
X89074748Y-78837904D01*
X88920952Y-78916267D01*
X88756790Y-78969607D01*
X88586305Y-78996609D01*
X88413695Y-78996609D01*
X88243210Y-78969607D01*
X88079048Y-78916267D01*
X87925252Y-78837904D01*
X87785607Y-78736447D01*
X87663553Y-78614393D01*
X87562096Y-78474748D01*
X87483733Y-78320952D01*
X87430393Y-78156790D01*
X87403391Y-77986305D01*
X87403391Y-77813695D01*
X87430393Y-77643210D01*
X87483733Y-77479048D01*
X87562096Y-77325252D01*
X87663553Y-77185607D01*
X87785607Y-77063553D01*
X87925252Y-76962096D01*
X88079048Y-76883733D01*
X88243210Y-76830393D01*
X88413695Y-76803391D01*
X88586305Y-76803391D01*
X88756790Y-76830393D01*
G37*
G36*
X229856790Y-76830393D02*
G01*
X230020952Y-76883733D01*
X230174748Y-76962096D01*
X230314393Y-77063553D01*
X230436447Y-77185607D01*
X230537904Y-77325252D01*
X230616267Y-77479048D01*
X230669607Y-77643210D01*
X230696609Y-77813695D01*
X230696609Y-77986305D01*
X230669607Y-78156790D01*
X230616267Y-78320952D01*
X230537904Y-78474748D01*
X230436447Y-78614393D01*
X230314393Y-78736447D01*
X230174748Y-78837904D01*
X230020952Y-78916267D01*
X229856790Y-78969607D01*
X229686305Y-78996609D01*
X229513695Y-78996609D01*
X229343210Y-78969607D01*
X229179048Y-78916267D01*
X229025252Y-78837904D01*
X228885607Y-78736447D01*
X228763553Y-78614393D01*
X228662096Y-78474748D01*
X228583733Y-78320952D01*
X228530393Y-78156790D01*
X228503391Y-77986305D01*
X228503391Y-77813695D01*
X228530393Y-77643210D01*
X228583733Y-77479048D01*
X228662096Y-77325252D01*
X228763553Y-77185607D01*
X228885607Y-77063553D01*
X229025252Y-76962096D01*
X229179048Y-76883733D01*
X229343210Y-76830393D01*
X229513695Y-76803391D01*
X229686305Y-76803391D01*
X229856790Y-76830393D01*
G37*
G36*
X114201663Y-73955495D02*
G01*
X114210683Y-73958484D01*
X114216807Y-73959174D01*
X114288961Y-73984422D01*
X114366964Y-74010269D01*
X114372388Y-74013614D01*
X114375247Y-74014615D01*
X114441422Y-74056195D01*
X114515177Y-74101688D01*
X114638312Y-74224823D01*
X114683823Y-74298609D01*
X114725384Y-74364752D01*
X114726383Y-74367609D01*
X114729731Y-74373036D01*
X114755592Y-74451083D01*
X114780825Y-74523193D01*
X114781514Y-74529311D01*
X114784505Y-74538337D01*
X114800000Y-74690000D01*
X114800000Y-77190000D01*
X114784505Y-77341663D01*
X114781514Y-77350688D01*
X114780825Y-77356807D01*
X114755595Y-77428907D01*
X114729731Y-77506964D01*
X114726383Y-77512391D01*
X114725384Y-77515247D01*
X114683857Y-77581336D01*
X114638312Y-77655177D01*
X114515177Y-77778312D01*
X114441336Y-77823857D01*
X114375247Y-77865384D01*
X114372391Y-77866383D01*
X114366964Y-77869731D01*
X114288897Y-77895599D01*
X114216806Y-77920825D01*
X114210688Y-77921514D01*
X114201663Y-77924505D01*
X114050000Y-77940000D01*
X112550000Y-77940000D01*
X112398337Y-77924505D01*
X112389312Y-77921514D01*
X112383192Y-77920825D01*
X112311073Y-77895589D01*
X112233036Y-77869731D01*
X112227609Y-77866383D01*
X112224752Y-77865384D01*
X112158609Y-77823823D01*
X112084823Y-77778312D01*
X111961688Y-77655177D01*
X111916195Y-77581422D01*
X111874615Y-77515247D01*
X111873614Y-77512388D01*
X111870269Y-77506964D01*
X111844418Y-77428951D01*
X111819174Y-77356806D01*
X111818484Y-77350684D01*
X111815495Y-77341663D01*
X111800000Y-77190000D01*
X111800000Y-74690000D01*
X111815495Y-74538337D01*
X111818483Y-74529316D01*
X111819174Y-74523192D01*
X111844428Y-74451019D01*
X111870269Y-74373036D01*
X111873613Y-74367613D01*
X111874615Y-74364752D01*
X111916229Y-74298522D01*
X111961688Y-74224823D01*
X112084823Y-74101688D01*
X112158522Y-74056229D01*
X112224752Y-74014615D01*
X112227613Y-74013613D01*
X112233036Y-74010269D01*
X112311029Y-73984425D01*
X112383193Y-73959174D01*
X112389316Y-73958484D01*
X112398337Y-73955495D01*
X112550000Y-73940000D01*
X114050000Y-73940000D01*
X114201663Y-73955495D01*
G37*
G36*
X123001663Y-73955495D02*
G01*
X123010683Y-73958484D01*
X123016807Y-73959174D01*
X123088961Y-73984422D01*
X123166964Y-74010269D01*
X123172388Y-74013614D01*
X123175247Y-74014615D01*
X123241422Y-74056195D01*
X123315177Y-74101688D01*
X123438312Y-74224823D01*
X123483823Y-74298609D01*
X123525384Y-74364752D01*
X123526383Y-74367609D01*
X123529731Y-74373036D01*
X123555592Y-74451083D01*
X123580825Y-74523193D01*
X123581514Y-74529311D01*
X123584505Y-74538337D01*
X123600000Y-74690000D01*
X123600000Y-77190000D01*
X123584505Y-77341663D01*
X123581514Y-77350688D01*
X123580825Y-77356807D01*
X123555595Y-77428907D01*
X123529731Y-77506964D01*
X123526383Y-77512391D01*
X123525384Y-77515247D01*
X123483857Y-77581336D01*
X123438312Y-77655177D01*
X123315177Y-77778312D01*
X123241336Y-77823857D01*
X123175247Y-77865384D01*
X123172391Y-77866383D01*
X123166964Y-77869731D01*
X123088897Y-77895599D01*
X123016806Y-77920825D01*
X123010688Y-77921514D01*
X123001663Y-77924505D01*
X122850000Y-77940000D01*
X121350000Y-77940000D01*
X121198337Y-77924505D01*
X121189312Y-77921514D01*
X121183192Y-77920825D01*
X121111073Y-77895589D01*
X121033036Y-77869731D01*
X121027609Y-77866383D01*
X121024752Y-77865384D01*
X120958609Y-77823823D01*
X120884823Y-77778312D01*
X120761688Y-77655177D01*
X120716195Y-77581422D01*
X120674615Y-77515247D01*
X120673614Y-77512388D01*
X120670269Y-77506964D01*
X120644418Y-77428951D01*
X120619174Y-77356806D01*
X120618484Y-77350684D01*
X120615495Y-77341663D01*
X120600000Y-77190000D01*
X120600000Y-74690000D01*
X120615495Y-74538337D01*
X120618483Y-74529316D01*
X120619174Y-74523192D01*
X120644428Y-74451019D01*
X120670269Y-74373036D01*
X120673613Y-74367613D01*
X120674615Y-74364752D01*
X120716229Y-74298522D01*
X120761688Y-74224823D01*
X120884823Y-74101688D01*
X120958522Y-74056229D01*
X121024752Y-74014615D01*
X121027613Y-74013613D01*
X121033036Y-74010269D01*
X121111029Y-73984425D01*
X121183193Y-73959174D01*
X121189316Y-73958484D01*
X121198337Y-73955495D01*
X121350000Y-73940000D01*
X122850000Y-73940000D01*
X123001663Y-73955495D01*
G37*
G36*
X174433116Y-74674575D02*
G01*
X174615770Y-74710907D01*
X174787827Y-74782175D01*
X174942674Y-74885640D01*
X175074360Y-75017326D01*
X175177825Y-75172173D01*
X175249093Y-75344230D01*
X175285425Y-75526884D01*
X175285425Y-75713116D01*
X175249093Y-75895770D01*
X175177825Y-76067827D01*
X175074360Y-76222674D01*
X174942674Y-76354360D01*
X174787827Y-76457825D01*
X174615770Y-76529093D01*
X174433116Y-76565425D01*
X174340000Y-76570000D01*
X174338522Y-76570000D01*
X173041478Y-76570000D01*
X173040000Y-76570000D01*
X172946884Y-76565425D01*
X172764230Y-76529093D01*
X172592173Y-76457825D01*
X172437326Y-76354360D01*
X172305640Y-76222674D01*
X172202175Y-76067827D01*
X172130907Y-75895770D01*
X172094575Y-75713116D01*
X172094575Y-75526884D01*
X172130907Y-75344230D01*
X172202175Y-75172173D01*
X172305640Y-75017326D01*
X172437326Y-74885640D01*
X172592173Y-74782175D01*
X172764230Y-74710907D01*
X172946884Y-74674575D01*
X173040000Y-74670000D01*
X174340000Y-74670000D01*
X174433116Y-74674575D01*
G37*
G36*
X186933116Y-74674575D02*
G01*
X187115770Y-74710907D01*
X187287827Y-74782175D01*
X187442674Y-74885640D01*
X187574360Y-75017326D01*
X187677825Y-75172173D01*
X187749093Y-75344230D01*
X187785425Y-75526884D01*
X187785425Y-75713116D01*
X187749093Y-75895770D01*
X187677825Y-76067827D01*
X187574360Y-76222674D01*
X187442674Y-76354360D01*
X187287827Y-76457825D01*
X187115770Y-76529093D01*
X186933116Y-76565425D01*
X186840000Y-76570000D01*
X186838522Y-76570000D01*
X185541478Y-76570000D01*
X185540000Y-76570000D01*
X185446884Y-76565425D01*
X185264230Y-76529093D01*
X185092173Y-76457825D01*
X184937326Y-76354360D01*
X184805640Y-76222674D01*
X184702175Y-76067827D01*
X184630907Y-75895770D01*
X184594575Y-75713116D01*
X184594575Y-75526884D01*
X184630907Y-75344230D01*
X184702175Y-75172173D01*
X184805640Y-75017326D01*
X184937326Y-74885640D01*
X185092173Y-74782175D01*
X185264230Y-74710907D01*
X185446884Y-74674575D01*
X185540000Y-74670000D01*
X186840000Y-74670000D01*
X186933116Y-74674575D01*
G37*
G36*
X192683116Y-74674575D02*
G01*
X192865770Y-74710907D01*
X193037827Y-74782175D01*
X193192674Y-74885640D01*
X193324360Y-75017326D01*
X193427825Y-75172173D01*
X193499093Y-75344230D01*
X193535425Y-75526884D01*
X193535425Y-75713116D01*
X193499093Y-75895770D01*
X193427825Y-76067827D01*
X193324360Y-76222674D01*
X193192674Y-76354360D01*
X193037827Y-76457825D01*
X192865770Y-76529093D01*
X192683116Y-76565425D01*
X192590000Y-76570000D01*
X192588522Y-76570000D01*
X191291478Y-76570000D01*
X191290000Y-76570000D01*
X191196884Y-76565425D01*
X191014230Y-76529093D01*
X190842173Y-76457825D01*
X190687326Y-76354360D01*
X190555640Y-76222674D01*
X190452175Y-76067827D01*
X190380907Y-75895770D01*
X190344575Y-75713116D01*
X190344575Y-75526884D01*
X190380907Y-75344230D01*
X190452175Y-75172173D01*
X190555640Y-75017326D01*
X190687326Y-74885640D01*
X190842173Y-74782175D01*
X191014230Y-74710907D01*
X191196884Y-74674575D01*
X191290000Y-74670000D01*
X192590000Y-74670000D01*
X192683116Y-74674575D01*
G37*
G36*
X205183116Y-74674575D02*
G01*
X205365770Y-74710907D01*
X205537827Y-74782175D01*
X205692674Y-74885640D01*
X205824360Y-75017326D01*
X205927825Y-75172173D01*
X205999093Y-75344230D01*
X206035425Y-75526884D01*
X206035425Y-75713116D01*
X205999093Y-75895770D01*
X205927825Y-76067827D01*
X205824360Y-76222674D01*
X205692674Y-76354360D01*
X205537827Y-76457825D01*
X205365770Y-76529093D01*
X205183116Y-76565425D01*
X205090000Y-76570000D01*
X205088522Y-76570000D01*
X203791478Y-76570000D01*
X203790000Y-76570000D01*
X203696884Y-76565425D01*
X203514230Y-76529093D01*
X203342173Y-76457825D01*
X203187326Y-76354360D01*
X203055640Y-76222674D01*
X202952175Y-76067827D01*
X202880907Y-75895770D01*
X202844575Y-75713116D01*
X202844575Y-75526884D01*
X202880907Y-75344230D01*
X202952175Y-75172173D01*
X203055640Y-75017326D01*
X203187326Y-74885640D01*
X203342173Y-74782175D01*
X203514230Y-74710907D01*
X203696884Y-74674575D01*
X203790000Y-74670000D01*
X205090000Y-74670000D01*
X205183116Y-74674575D01*
G37*
G36*
X210743116Y-74674575D02*
G01*
X210925770Y-74710907D01*
X211097827Y-74782175D01*
X211252674Y-74885640D01*
X211384360Y-75017326D01*
X211487825Y-75172173D01*
X211559093Y-75344230D01*
X211595425Y-75526884D01*
X211595425Y-75713116D01*
X211559093Y-75895770D01*
X211487825Y-76067827D01*
X211384360Y-76222674D01*
X211252674Y-76354360D01*
X211097827Y-76457825D01*
X210925770Y-76529093D01*
X210743116Y-76565425D01*
X210650000Y-76570000D01*
X210648522Y-76570000D01*
X209351478Y-76570000D01*
X209350000Y-76570000D01*
X209256884Y-76565425D01*
X209074230Y-76529093D01*
X208902173Y-76457825D01*
X208747326Y-76354360D01*
X208615640Y-76222674D01*
X208512175Y-76067827D01*
X208440907Y-75895770D01*
X208404575Y-75713116D01*
X208404575Y-75526884D01*
X208440907Y-75344230D01*
X208512175Y-75172173D01*
X208615640Y-75017326D01*
X208747326Y-74885640D01*
X208902173Y-74782175D01*
X209074230Y-74710907D01*
X209256884Y-74674575D01*
X209350000Y-74670000D01*
X210650000Y-74670000D01*
X210743116Y-74674575D01*
G37*
G36*
X223243116Y-74674575D02*
G01*
X223425770Y-74710907D01*
X223597827Y-74782175D01*
X223752674Y-74885640D01*
X223884360Y-75017326D01*
X223987825Y-75172173D01*
X224059093Y-75344230D01*
X224095425Y-75526884D01*
X224095425Y-75713116D01*
X224059093Y-75895770D01*
X223987825Y-76067827D01*
X223884360Y-76222674D01*
X223752674Y-76354360D01*
X223597827Y-76457825D01*
X223425770Y-76529093D01*
X223243116Y-76565425D01*
X223150000Y-76570000D01*
X223148522Y-76570000D01*
X221851478Y-76570000D01*
X221850000Y-76570000D01*
X221756884Y-76565425D01*
X221574230Y-76529093D01*
X221402173Y-76457825D01*
X221247326Y-76354360D01*
X221115640Y-76222674D01*
X221012175Y-76067827D01*
X220940907Y-75895770D01*
X220904575Y-75713116D01*
X220904575Y-75526884D01*
X220940907Y-75344230D01*
X221012175Y-75172173D01*
X221115640Y-75017326D01*
X221247326Y-74885640D01*
X221402173Y-74782175D01*
X221574230Y-74710907D01*
X221756884Y-74674575D01*
X221850000Y-74670000D01*
X223150000Y-74670000D01*
X223243116Y-74674575D01*
G37*
G36*
X105982228Y-73154448D02*
G01*
X106127117Y-73214463D01*
X106257515Y-73301592D01*
X106368408Y-73412485D01*
X106455537Y-73542883D01*
X106515552Y-73687772D01*
X106546148Y-73841586D01*
X106546148Y-73998414D01*
X106515552Y-74152228D01*
X106455537Y-74297117D01*
X106368408Y-74427515D01*
X106257515Y-74538408D01*
X106127117Y-74625537D01*
X105982228Y-74685552D01*
X105828414Y-74716148D01*
X105671586Y-74716148D01*
X105517772Y-74685552D01*
X105372883Y-74625537D01*
X105242485Y-74538408D01*
X105131592Y-74427515D01*
X105044463Y-74297117D01*
X104984448Y-74152228D01*
X104953852Y-73998414D01*
X104953852Y-73841586D01*
X104984448Y-73687772D01*
X105044463Y-73542883D01*
X105131592Y-73412485D01*
X105242485Y-73301592D01*
X105372883Y-73214463D01*
X105517772Y-73154448D01*
X105671586Y-73123852D01*
X105828414Y-73123852D01*
X105982228Y-73154448D01*
G37*
G36*
X226432228Y-68854448D02*
G01*
X226577117Y-68914463D01*
X226707515Y-69001592D01*
X226818408Y-69112485D01*
X226905537Y-69242883D01*
X226965552Y-69387772D01*
X226996148Y-69541586D01*
X226996148Y-69698414D01*
X226965552Y-69852228D01*
X226905537Y-69997117D01*
X226818408Y-70127515D01*
X226707515Y-70238408D01*
X226577117Y-70325537D01*
X226432228Y-70385552D01*
X226278414Y-70416148D01*
X226121586Y-70416148D01*
X225967772Y-70385552D01*
X225822883Y-70325537D01*
X225692485Y-70238408D01*
X225581592Y-70127515D01*
X225494463Y-69997117D01*
X225434448Y-69852228D01*
X225403852Y-69698414D01*
X225403852Y-69541586D01*
X225434448Y-69387772D01*
X225494463Y-69242883D01*
X225581592Y-69112485D01*
X225692485Y-69001592D01*
X225822883Y-68914463D01*
X225967772Y-68854448D01*
X226121586Y-68823852D01*
X226278414Y-68823852D01*
X226432228Y-68854448D01*
G37*
G36*
X234052228Y-68854448D02*
G01*
X234197117Y-68914463D01*
X234327515Y-69001592D01*
X234438408Y-69112485D01*
X234525537Y-69242883D01*
X234585552Y-69387772D01*
X234616148Y-69541586D01*
X234616148Y-69698414D01*
X234585552Y-69852228D01*
X234525537Y-69997117D01*
X234438408Y-70127515D01*
X234327515Y-70238408D01*
X234197117Y-70325537D01*
X234052228Y-70385552D01*
X233898414Y-70416148D01*
X233741586Y-70416148D01*
X233587772Y-70385552D01*
X233442883Y-70325537D01*
X233312485Y-70238408D01*
X233201592Y-70127515D01*
X233114463Y-69997117D01*
X233054448Y-69852228D01*
X233023852Y-69698414D01*
X233023852Y-69541586D01*
X233054448Y-69387772D01*
X233114463Y-69242883D01*
X233201592Y-69112485D01*
X233312485Y-69001592D01*
X233442883Y-68914463D01*
X233587772Y-68854448D01*
X233741586Y-68823852D01*
X233898414Y-68823852D01*
X234052228Y-68854448D01*
G37*
G36*
X86462228Y-68354448D02*
G01*
X86607117Y-68414463D01*
X86737515Y-68501592D01*
X86848408Y-68612485D01*
X86935537Y-68742883D01*
X86995552Y-68887772D01*
X87026148Y-69041586D01*
X87026148Y-69198414D01*
X86995552Y-69352228D01*
X86935537Y-69497117D01*
X86848408Y-69627515D01*
X86737515Y-69738408D01*
X86607117Y-69825537D01*
X86462228Y-69885552D01*
X86308414Y-69916148D01*
X86151586Y-69916148D01*
X85997772Y-69885552D01*
X85852883Y-69825537D01*
X85722485Y-69738408D01*
X85611592Y-69627515D01*
X85524463Y-69497117D01*
X85464448Y-69352228D01*
X85433852Y-69198414D01*
X85433852Y-69041586D01*
X85464448Y-68887772D01*
X85524463Y-68742883D01*
X85611592Y-68612485D01*
X85722485Y-68501592D01*
X85852883Y-68414463D01*
X85997772Y-68354448D01*
X86151586Y-68323852D01*
X86308414Y-68323852D01*
X86462228Y-68354448D01*
G37*
G36*
X94082228Y-68354448D02*
G01*
X94227117Y-68414463D01*
X94357515Y-68501592D01*
X94468408Y-68612485D01*
X94555537Y-68742883D01*
X94615552Y-68887772D01*
X94646148Y-69041586D01*
X94646148Y-69198414D01*
X94615552Y-69352228D01*
X94555537Y-69497117D01*
X94468408Y-69627515D01*
X94357515Y-69738408D01*
X94227117Y-69825537D01*
X94082228Y-69885552D01*
X93928414Y-69916148D01*
X93771586Y-69916148D01*
X93617772Y-69885552D01*
X93472883Y-69825537D01*
X93342485Y-69738408D01*
X93231592Y-69627515D01*
X93144463Y-69497117D01*
X93084448Y-69352228D01*
X93053852Y-69198414D01*
X93053852Y-69041586D01*
X93084448Y-68887772D01*
X93144463Y-68742883D01*
X93231592Y-68612485D01*
X93342485Y-68501592D01*
X93472883Y-68414463D01*
X93617772Y-68354448D01*
X93771586Y-68323852D01*
X93928414Y-68323852D01*
X94082228Y-68354448D01*
G37*
M02*
